<svg width="470" height="89" viewBox="0 0 470 89" fill="none" xmlns="http://www.w3.org/2000/svg">
<path d="M34.5391 43.2109C34.4505 44.4349 33.9974 45.3984 33.1797 46.1016C32.3672 46.8047 31.2943 47.1562 29.9609 47.1562C28.5026 47.1562 27.3542 46.6667 26.5156 45.6875C25.6823 44.7031 25.2656 43.3542 25.2656 41.6406V40.9453C25.2656 39.8516 25.4583 38.888 25.8438 38.0547C26.2292 37.2214 26.7786 36.5833 27.4922 36.1406C28.2109 35.6927 29.0443 35.4688 29.9922 35.4688C31.3047 35.4688 32.362 35.8203 33.1641 36.5234C33.9661 37.2266 34.4297 38.2135 34.5547 39.4844H32.2109C32.1536 38.75 31.9479 38.2188 31.5938 37.8906C31.2448 37.5573 30.7109 37.3906 29.9922 37.3906C29.2109 37.3906 28.625 37.6719 28.2344 38.2344C27.849 38.7917 27.651 39.6589 27.6406 40.8359V41.6953C27.6406 42.9245 27.8255 43.8229 28.1953 44.3906C28.5703 44.9583 29.1589 45.2422 29.9609 45.2422C30.6849 45.2422 31.224 45.0781 31.5781 44.75C31.9375 44.4167 32.1432 43.9036 32.1953 43.2109H34.5391ZM40.9922 46.1406C40.4349 46.8177 39.6641 47.1562 38.6797 47.1562C37.7734 47.1562 37.0807 46.8958 36.6016 46.375C36.1276 45.8542 35.8854 45.0911 35.875 44.0859V38.5469H38.1328V44.0078C38.1328 44.888 38.5339 45.3281 39.3359 45.3281C40.1016 45.3281 40.6276 45.0625 40.9141 44.5312V38.5469H43.1797V47H41.0547L40.9922 46.1406ZM49.6328 40.6641C49.3255 40.6224 49.0547 40.6016 48.8203 40.6016C47.9661 40.6016 47.4062 40.8906 47.1406 41.4688V47H44.8828V38.5469H47.0156L47.0781 39.5547C47.5312 38.7786 48.1589 38.3906 48.9609 38.3906C49.2109 38.3906 49.4453 38.4245 49.6641 38.4922L49.6328 40.6641ZM55.4766 40.6641C55.1693 40.6224 54.8984 40.6016 54.6641 40.6016C53.8099 40.6016 53.25 40.8906 52.9844 41.4688V47H50.7266V38.5469H52.8594L52.9219 39.5547C53.375 38.7786 54.0026 38.3906 54.8047 38.3906C55.0547 38.3906 55.2891 38.4245 55.5078 38.4922L55.4766 40.6641ZM60.3047 47.1562C59.0651 47.1562 58.0547 46.776 57.2734 46.0156C56.4974 45.2552 56.1094 44.2422 56.1094 42.9766V42.7578C56.1094 41.9089 56.2734 41.151 56.6016 40.4844C56.9297 39.8125 57.3932 39.2969 57.9922 38.9375C58.5964 38.5729 59.2839 38.3906 60.0547 38.3906C61.2109 38.3906 62.1198 38.7552 62.7812 39.4844C63.4479 40.2135 63.7812 41.2474 63.7812 42.5859V43.5078H58.3984C58.4714 44.0599 58.6901 44.5026 59.0547 44.8359C59.4245 45.1693 59.8906 45.3359 60.4531 45.3359C61.3229 45.3359 62.0026 45.0208 62.4922 44.3906L63.6016 45.6328C63.263 46.112 62.8047 46.487 62.2266 46.7578C61.6484 47.0234 61.0078 47.1562 60.3047 47.1562ZM60.0469 40.2188C59.599 40.2188 59.2344 40.3698 58.9531 40.6719C58.6771 40.974 58.5 41.4062 58.4219 41.9688H61.5625V41.7891C61.5521 41.2891 61.4167 40.9036 61.1562 40.6328C60.8958 40.3568 60.526 40.2188 60.0469 40.2188ZM67.1484 38.5469L67.2188 39.5234C67.8229 38.7682 68.6328 38.3906 69.6484 38.3906C70.5443 38.3906 71.2109 38.6536 71.6484 39.1797C72.0859 39.7057 72.3099 40.4922 72.3203 41.5391V47H70.0625V41.5938C70.0625 41.1146 69.9583 40.7682 69.75 40.5547C69.5417 40.3359 69.1953 40.2266 68.7109 40.2266C68.0755 40.2266 67.599 40.4974 67.2812 41.0391V47H65.0234V38.5469H67.1484ZM76.7422 36.4688V38.5469H78.1875V40.2031H76.7422V44.4219C76.7422 44.7344 76.8021 44.9583 76.9219 45.0938C77.0417 45.2292 77.2708 45.2969 77.6094 45.2969C77.8594 45.2969 78.0807 45.2786 78.2734 45.2422V46.9531C77.8307 47.0885 77.375 47.1562 76.9062 47.1562C75.3229 47.1562 74.5156 46.3568 74.4844 44.7578V40.2031H73.25V38.5469H74.4844V36.4688H76.7422ZM81.8281 47H79.5625V35H81.8281V47ZM86.8516 43.8047L88.4141 38.5469H90.8359L87.4375 48.3125L87.25 48.7578C86.7448 49.862 85.9115 50.4141 84.75 50.4141C84.4219 50.4141 84.0885 50.3646 83.75 50.2656V48.5547L84.0938 48.5625C84.5208 48.5625 84.8385 48.4974 85.0469 48.3672C85.2604 48.237 85.4271 48.0208 85.5469 47.7188L85.8125 47.0234L82.8516 38.5469H85.2812L86.8516 43.8047ZM98.8672 43.8047L100.43 38.5469H102.852L99.4531 48.3125L99.2656 48.7578C98.7604 49.862 97.9271 50.4141 96.7656 50.4141C96.4375 50.4141 96.1042 50.3646 95.7656 50.2656V48.5547L96.1094 48.5625C96.5365 48.5625 96.8542 48.4974 97.0625 48.3672C97.276 48.237 97.4427 48.0208 97.5625 47.7188L97.8281 47.0234L94.8672 38.5469H97.2969L98.8672 43.8047ZM103.266 42.6953C103.266 41.8568 103.427 41.1094 103.75 40.4531C104.073 39.7969 104.536 39.2891 105.141 38.9297C105.75 38.5703 106.456 38.3906 107.258 38.3906C108.398 38.3906 109.328 38.7396 110.047 39.4375C110.771 40.1354 111.174 41.0833 111.258 42.2812L111.273 42.8594C111.273 44.1562 110.911 45.1979 110.188 45.9844C109.464 46.7656 108.492 47.1562 107.273 47.1562C106.055 47.1562 105.081 46.7656 104.352 45.9844C103.628 45.2031 103.266 44.1406 103.266 42.7969V42.6953ZM105.523 42.8594C105.523 43.6615 105.674 44.276 105.977 44.7031C106.279 45.125 106.711 45.3359 107.273 45.3359C107.82 45.3359 108.247 45.1276 108.555 44.7109C108.862 44.2891 109.016 43.6172 109.016 42.6953C109.016 41.9089 108.862 41.2995 108.555 40.8672C108.247 40.4349 107.815 40.2188 107.258 40.2188C106.706 40.2188 106.279 40.4349 105.977 40.8672C105.674 41.2943 105.523 41.9583 105.523 42.8594ZM117.727 46.1406C117.169 46.8177 116.398 47.1562 115.414 47.1562C114.508 47.1562 113.815 46.8958 113.336 46.375C112.862 45.8542 112.62 45.0911 112.609 44.0859V38.5469H114.867V44.0078C114.867 44.888 115.268 45.3281 116.07 45.3281C116.836 45.3281 117.362 45.0625 117.648 44.5312V38.5469H119.914V47H117.789L117.727 46.1406ZM127.805 39.4688C128.404 38.75 129.156 38.3906 130.062 38.3906C131.896 38.3906 132.826 39.4557 132.852 41.5859V47H130.594V41.6484C130.594 41.1641 130.49 40.8073 130.281 40.5781C130.073 40.3438 129.727 40.2266 129.242 40.2266C128.581 40.2266 128.102 40.4818 127.805 40.9922V47H125.547V35H127.805V39.4688ZM139.453 47C139.349 46.7969 139.273 46.5443 139.227 46.2422C138.68 46.8516 137.969 47.1562 137.094 47.1562C136.266 47.1562 135.578 46.9167 135.031 46.4375C134.49 45.9583 134.219 45.3542 134.219 44.625C134.219 43.7292 134.549 43.0417 135.211 42.5625C135.878 42.0833 136.839 41.8411 138.094 41.8359H139.133V41.3516C139.133 40.9609 139.031 40.6484 138.828 40.4141C138.63 40.1797 138.315 40.0625 137.883 40.0625C137.503 40.0625 137.203 40.1536 136.984 40.3359C136.771 40.5182 136.664 40.7682 136.664 41.0859H134.406C134.406 40.5964 134.557 40.1432 134.859 39.7266C135.161 39.3099 135.589 38.9844 136.141 38.75C136.693 38.5104 137.312 38.3906 138 38.3906C139.042 38.3906 139.867 38.6536 140.477 39.1797C141.091 39.7005 141.398 40.4349 141.398 41.3828V45.0469C141.404 45.849 141.516 46.4557 141.734 46.8672V47H139.453ZM137.586 45.4297C137.919 45.4297 138.227 45.3568 138.508 45.2109C138.789 45.0599 138.997 44.8594 139.133 44.6094V43.1562H138.289C137.159 43.1562 136.557 43.5469 136.484 44.3281L136.477 44.4609C136.477 44.7422 136.576 44.974 136.773 45.1562C136.971 45.3385 137.242 45.4297 137.586 45.4297ZM146.172 44.2422L147.742 38.5469H150.102L147.25 47H145.094L142.242 38.5469H144.602L146.172 44.2422ZM154.883 47.1562C153.643 47.1562 152.633 46.776 151.852 46.0156C151.076 45.2552 150.688 44.2422 150.688 42.9766V42.7578C150.688 41.9089 150.852 41.151 151.18 40.4844C151.508 39.8125 151.971 39.2969 152.57 38.9375C153.174 38.5729 153.862 38.3906 154.633 38.3906C155.789 38.3906 156.698 38.7552 157.359 39.4844C158.026 40.2135 158.359 41.2474 158.359 42.5859V43.5078H152.977C153.049 44.0599 153.268 44.5026 153.633 44.8359C154.003 45.1693 154.469 45.3359 155.031 45.3359C155.901 45.3359 156.581 45.0208 157.07 44.3906L158.18 45.6328C157.841 46.112 157.383 46.487 156.805 46.7578C156.227 47.0234 155.586 47.1562 154.883 47.1562ZM154.625 40.2188C154.177 40.2188 153.812 40.3698 153.531 40.6719C153.255 40.974 153.078 41.4062 153 41.9688H156.141V41.7891C156.13 41.2891 155.995 40.9036 155.734 40.6328C155.474 40.3568 155.104 40.2188 154.625 40.2188ZM165.711 38.5469L165.781 39.5234C166.385 38.7682 167.195 38.3906 168.211 38.3906C169.107 38.3906 169.773 38.6536 170.211 39.1797C170.648 39.7057 170.872 40.4922 170.883 41.5391V47H168.625V41.5938C168.625 41.1146 168.521 40.7682 168.312 40.5547C168.104 40.3359 167.758 40.2266 167.273 40.2266C166.638 40.2266 166.161 40.4974 165.844 41.0391V47H163.586V38.5469H165.711ZM172.25 42.6953C172.25 41.8568 172.411 41.1094 172.734 40.4531C173.057 39.7969 173.521 39.2891 174.125 38.9297C174.734 38.5703 175.44 38.3906 176.242 38.3906C177.383 38.3906 178.312 38.7396 179.031 39.4375C179.755 40.1354 180.159 41.0833 180.242 42.2812L180.258 42.8594C180.258 44.1562 179.896 45.1979 179.172 45.9844C178.448 46.7656 177.477 47.1562 176.258 47.1562C175.039 47.1562 174.065 46.7656 173.336 45.9844C172.612 45.2031 172.25 44.1406 172.25 42.7969V42.6953ZM174.508 42.8594C174.508 43.6615 174.659 44.276 174.961 44.7031C175.263 45.125 175.695 45.3359 176.258 45.3359C176.805 45.3359 177.232 45.1276 177.539 44.7109C177.846 44.2891 178 43.6172 178 42.6953C178 41.9089 177.846 41.2995 177.539 40.8672C177.232 40.4349 176.799 40.2188 176.242 40.2188C175.69 40.2188 175.263 40.4349 174.961 40.8672C174.659 41.2943 174.508 41.9583 174.508 42.8594ZM185.281 42.7109C185.281 41.3932 185.576 40.3438 186.164 39.5625C186.758 38.7812 187.568 38.3906 188.594 38.3906C189.417 38.3906 190.096 38.6979 190.633 39.3125V35H192.898V47H190.859L190.75 46.1016C190.188 46.8047 189.464 47.1562 188.578 47.1562C187.583 47.1562 186.784 46.7656 186.18 45.9844C185.581 45.1979 185.281 44.1068 185.281 42.7109ZM187.539 42.875C187.539 43.6667 187.677 44.2734 187.953 44.6953C188.229 45.1172 188.63 45.3281 189.156 45.3281C189.854 45.3281 190.346 45.0339 190.633 44.4453V41.1094C190.352 40.5208 189.865 40.2266 189.172 40.2266C188.083 40.2266 187.539 41.1094 187.539 42.875ZM199.547 47C199.443 46.7969 199.367 46.5443 199.32 46.2422C198.773 46.8516 198.062 47.1562 197.188 47.1562C196.359 47.1562 195.672 46.9167 195.125 46.4375C194.583 45.9583 194.312 45.3542 194.312 44.625C194.312 43.7292 194.643 43.0417 195.305 42.5625C195.971 42.0833 196.932 41.8411 198.188 41.8359H199.227V41.3516C199.227 40.9609 199.125 40.6484 198.922 40.4141C198.724 40.1797 198.409 40.0625 197.977 40.0625C197.596 40.0625 197.297 40.1536 197.078 40.3359C196.865 40.5182 196.758 40.7682 196.758 41.0859H194.5C194.5 40.5964 194.651 40.1432 194.953 39.7266C195.255 39.3099 195.682 38.9844 196.234 38.75C196.786 38.5104 197.406 38.3906 198.094 38.3906C199.135 38.3906 199.961 38.6536 200.57 39.1797C201.185 39.7005 201.492 40.4349 201.492 41.3828V45.0469C201.497 45.849 201.609 46.4557 201.828 46.8672V47H199.547ZM197.68 45.4297C198.013 45.4297 198.32 45.3568 198.602 45.2109C198.883 45.0599 199.091 44.8594 199.227 44.6094V43.1562H198.383C197.253 43.1562 196.651 43.5469 196.578 44.3281L196.57 44.4609C196.57 44.7422 196.669 44.974 196.867 45.1562C197.065 45.3385 197.336 45.4297 197.68 45.4297ZM205.93 36.4688V38.5469H207.375V40.2031H205.93V44.4219C205.93 44.7344 205.99 44.9583 206.109 45.0938C206.229 45.2292 206.458 45.2969 206.797 45.2969C207.047 45.2969 207.268 45.2786 207.461 45.2422V46.9531C207.018 47.0885 206.562 47.1562 206.094 47.1562C204.51 47.1562 203.703 46.3568 203.672 44.7578V40.2031H202.438V38.5469H203.672V36.4688H205.93ZM213.531 47C213.427 46.7969 213.352 46.5443 213.305 46.2422C212.758 46.8516 212.047 47.1562 211.172 47.1562C210.344 47.1562 209.656 46.9167 209.109 46.4375C208.568 45.9583 208.297 45.3542 208.297 44.625C208.297 43.7292 208.628 43.0417 209.289 42.5625C209.956 42.0833 210.917 41.8411 212.172 41.8359H213.211V41.3516C213.211 40.9609 213.109 40.6484 212.906 40.4141C212.708 40.1797 212.393 40.0625 211.961 40.0625C211.581 40.0625 211.281 40.1536 211.062 40.3359C210.849 40.5182 210.742 40.7682 210.742 41.0859H208.484C208.484 40.5964 208.635 40.1432 208.938 39.7266C209.24 39.3099 209.667 38.9844 210.219 38.75C210.771 38.5104 211.391 38.3906 212.078 38.3906C213.12 38.3906 213.945 38.6536 214.555 39.1797C215.169 39.7005 215.477 40.4349 215.477 41.3828V45.0469C215.482 45.849 215.594 46.4557 215.812 46.8672V47H213.531ZM211.664 45.4297C211.997 45.4297 212.305 45.3568 212.586 45.2109C212.867 45.0599 213.076 44.8594 213.211 44.6094V43.1562H212.367C211.237 43.1562 210.635 43.5469 210.562 44.3281L210.555 44.4609C210.555 44.7422 210.654 44.974 210.852 45.1562C211.049 45.3385 211.32 45.4297 211.664 45.4297ZM221.812 47V40.2031H220.555V38.5469H221.812V37.8281C221.812 36.8802 222.083 36.1458 222.625 35.625C223.172 35.099 223.935 34.8359 224.914 34.8359C225.227 34.8359 225.609 34.888 226.062 34.9922L226.039 36.7422C225.852 36.6953 225.622 36.6719 225.352 36.6719C224.503 36.6719 224.078 37.0703 224.078 37.8672V38.5469H225.758V40.2031H224.078V47H221.812ZM226.578 42.6953C226.578 41.8568 226.74 41.1094 227.062 40.4531C227.385 39.7969 227.849 39.2891 228.453 38.9297C229.062 38.5703 229.768 38.3906 230.57 38.3906C231.711 38.3906 232.641 38.7396 233.359 39.4375C234.083 40.1354 234.487 41.0833 234.57 42.2812L234.586 42.8594C234.586 44.1562 234.224 45.1979 233.5 45.9844C232.776 46.7656 231.805 47.1562 230.586 47.1562C229.367 47.1562 228.393 46.7656 227.664 45.9844C226.94 45.2031 226.578 44.1406 226.578 42.7969V42.6953ZM228.836 42.8594C228.836 43.6615 228.987 44.276 229.289 44.7031C229.591 45.125 230.023 45.3359 230.586 45.3359C231.133 45.3359 231.56 45.1276 231.867 44.7109C232.174 44.2891 232.328 43.6172 232.328 42.6953C232.328 41.9089 232.174 41.2995 231.867 40.8672C231.56 40.4349 231.128 40.2188 230.57 40.2188C230.018 40.2188 229.591 40.4349 229.289 40.8672C228.987 41.2943 228.836 41.9583 228.836 42.8594ZM240.727 40.6641C240.419 40.6224 240.148 40.6016 239.914 40.6016C239.06 40.6016 238.5 40.8906 238.234 41.4688V47H235.977V38.5469H238.109L238.172 39.5547C238.625 38.7786 239.253 38.3906 240.055 38.3906C240.305 38.3906 240.539 38.4245 240.758 38.4922L240.727 40.6641ZM248.508 36.4688V38.5469H249.953V40.2031H248.508V44.4219C248.508 44.7344 248.568 44.9583 248.688 45.0938C248.807 45.2292 249.036 45.2969 249.375 45.2969C249.625 45.2969 249.846 45.2786 250.039 45.2422V46.9531C249.596 47.0885 249.141 47.1562 248.672 47.1562C247.089 47.1562 246.281 46.3568 246.25 44.7578V40.2031H245.016V38.5469H246.25V36.4688H248.508ZM253.414 39.4688C254.013 38.75 254.766 38.3906 255.672 38.3906C257.505 38.3906 258.435 39.4557 258.461 41.5859V47H256.203V41.6484C256.203 41.1641 256.099 40.8073 255.891 40.5781C255.682 40.3438 255.336 40.2266 254.852 40.2266C254.19 40.2266 253.711 40.4818 253.414 40.9922V47H251.156V35H253.414V39.4688ZM264.055 47.1562C262.815 47.1562 261.805 46.776 261.023 46.0156C260.247 45.2552 259.859 44.2422 259.859 42.9766V42.7578C259.859 41.9089 260.023 41.151 260.352 40.4844C260.68 39.8125 261.143 39.2969 261.742 38.9375C262.346 38.5729 263.034 38.3906 263.805 38.3906C264.961 38.3906 265.87 38.7552 266.531 39.4844C267.198 40.2135 267.531 41.2474 267.531 42.5859V43.5078H262.148C262.221 44.0599 262.44 44.5026 262.805 44.8359C263.174 45.1693 263.641 45.3359 264.203 45.3359C265.073 45.3359 265.753 45.0208 266.242 44.3906L267.352 45.6328C267.013 46.112 266.555 46.487 265.977 46.7578C265.398 47.0234 264.758 47.1562 264.055 47.1562ZM263.797 40.2188C263.349 40.2188 262.984 40.3698 262.703 40.6719C262.427 40.974 262.25 41.4062 262.172 41.9688H265.312V41.7891C265.302 41.2891 265.167 40.9036 264.906 40.6328C264.646 40.3568 264.276 40.2188 263.797 40.2188ZM277.555 40.6641C277.247 40.6224 276.977 40.6016 276.742 40.6016C275.888 40.6016 275.328 40.8906 275.062 41.4688V47H272.805V38.5469H274.938L275 39.5547C275.453 38.7786 276.081 38.3906 276.883 38.3906C277.133 38.3906 277.367 38.4245 277.586 38.4922L277.555 40.6641ZM282.383 47.1562C281.143 47.1562 280.133 46.776 279.352 46.0156C278.576 45.2552 278.188 44.2422 278.188 42.9766V42.7578C278.188 41.9089 278.352 41.151 278.68 40.4844C279.008 39.8125 279.471 39.2969 280.07 38.9375C280.674 38.5729 281.362 38.3906 282.133 38.3906C283.289 38.3906 284.198 38.7552 284.859 39.4844C285.526 40.2135 285.859 41.2474 285.859 42.5859V43.5078H280.477C280.549 44.0599 280.768 44.5026 281.133 44.8359C281.503 45.1693 281.969 45.3359 282.531 45.3359C283.401 45.3359 284.081 45.0208 284.57 44.3906L285.68 45.6328C285.341 46.112 284.883 46.487 284.305 46.7578C283.727 47.0234 283.086 47.1562 282.383 47.1562ZM282.125 40.2188C281.677 40.2188 281.312 40.3698 281.031 40.6719C280.755 40.974 280.578 41.4062 280.5 41.9688H283.641V41.7891C283.63 41.2891 283.495 40.9036 283.234 40.6328C282.974 40.3568 282.604 40.2188 282.125 40.2188ZM294.758 42.8516C294.758 44.1536 294.461 45.1979 293.867 45.9844C293.279 46.7656 292.482 47.1562 291.477 47.1562C290.622 47.1562 289.932 46.8594 289.406 46.2656V50.25H287.148V38.5469H289.242L289.32 39.375C289.867 38.7188 290.581 38.3906 291.461 38.3906C292.503 38.3906 293.312 38.776 293.891 39.5469C294.469 40.3177 294.758 41.3802 294.758 42.7344V42.8516ZM292.5 42.6875C292.5 41.901 292.359 41.2943 292.078 40.8672C291.802 40.4401 291.398 40.2266 290.867 40.2266C290.159 40.2266 289.672 40.4974 289.406 41.0391V44.5C289.682 45.0573 290.174 45.3359 290.883 45.3359C291.961 45.3359 292.5 44.4531 292.5 42.6875ZM295.812 42.6953C295.812 41.8568 295.974 41.1094 296.297 40.4531C296.62 39.7969 297.083 39.2891 297.688 38.9297C298.297 38.5703 299.003 38.3906 299.805 38.3906C300.945 38.3906 301.875 38.7396 302.594 39.4375C303.318 40.1354 303.721 41.0833 303.805 42.2812L303.82 42.8594C303.82 44.1562 303.458 45.1979 302.734 45.9844C302.01 46.7656 301.039 47.1562 299.82 47.1562C298.602 47.1562 297.628 46.7656 296.898 45.9844C296.174 45.2031 295.812 44.1406 295.812 42.7969V42.6953ZM298.07 42.8594C298.07 43.6615 298.221 44.276 298.523 44.7031C298.826 45.125 299.258 45.3359 299.82 45.3359C300.367 45.3359 300.794 45.1276 301.102 44.7109C301.409 44.2891 301.562 43.6172 301.562 42.6953C301.562 41.9089 301.409 41.2995 301.102 40.8672C300.794 40.4349 300.362 40.2188 299.805 40.2188C299.253 40.2188 298.826 40.4349 298.523 40.8672C298.221 41.2943 298.07 41.9583 298.07 42.8594ZM309.961 40.6641C309.654 40.6224 309.383 40.6016 309.148 40.6016C308.294 40.6016 307.734 40.8906 307.469 41.4688V47H305.211V38.5469H307.344L307.406 39.5547C307.859 38.7786 308.487 38.3906 309.289 38.3906C309.539 38.3906 309.773 38.4245 309.992 38.4922L309.961 40.6641ZM314.148 36.4688V38.5469H315.594V40.2031H314.148V44.4219C314.148 44.7344 314.208 44.9583 314.328 45.0938C314.448 45.2292 314.677 45.2969 315.016 45.2969C315.266 45.2969 315.487 45.2786 315.68 45.2422V46.9531C315.237 47.0885 314.781 47.1562 314.312 47.1562C312.729 47.1562 311.922 46.3568 311.891 44.7578V40.2031H310.656V38.5469H311.891V36.4688H314.148ZM321.43 44.6641C321.43 44.388 321.292 44.1719 321.016 44.0156C320.745 43.8542 320.307 43.7109 319.703 43.5859C317.693 43.1641 316.688 42.3099 316.688 41.0234C316.688 40.2734 316.997 39.6484 317.617 39.1484C318.242 38.6432 319.057 38.3906 320.062 38.3906C321.135 38.3906 321.992 38.6432 322.633 39.1484C323.279 39.6536 323.602 40.3099 323.602 41.1172H321.344C321.344 40.7943 321.24 40.5286 321.031 40.3203C320.823 40.1068 320.497 40 320.055 40C319.674 40 319.38 40.0859 319.172 40.2578C318.964 40.4297 318.859 40.6484 318.859 40.9141C318.859 41.1641 318.977 41.3672 319.211 41.5234C319.451 41.6745 319.852 41.8073 320.414 41.9219C320.977 42.0312 321.451 42.1562 321.836 42.2969C323.029 42.7344 323.625 43.4922 323.625 44.5703C323.625 45.3411 323.294 45.9661 322.633 46.4453C321.971 46.9193 321.117 47.1562 320.07 47.1562C319.362 47.1562 318.732 47.0312 318.18 46.7812C317.633 46.526 317.203 46.1797 316.891 45.7422C316.578 45.2995 316.422 44.8229 316.422 44.3125H318.562C318.583 44.7135 318.732 45.0208 319.008 45.2344C319.284 45.4479 319.654 45.5547 320.117 45.5547C320.549 45.5547 320.875 45.474 321.094 45.3125C321.318 45.1458 321.43 44.9297 321.43 44.6641ZM331.773 36.4688V38.5469H333.219V40.2031H331.773V44.4219C331.773 44.7344 331.833 44.9583 331.953 45.0938C332.073 45.2292 332.302 45.2969 332.641 45.2969C332.891 45.2969 333.112 45.2786 333.305 45.2422V46.9531C332.862 47.0885 332.406 47.1562 331.938 47.1562C330.354 47.1562 329.547 46.3568 329.516 44.7578V40.2031H328.281V38.5469H329.516V36.4688H331.773ZM333.891 42.6953C333.891 41.8568 334.052 41.1094 334.375 40.4531C334.698 39.7969 335.161 39.2891 335.766 38.9297C336.375 38.5703 337.081 38.3906 337.883 38.3906C339.023 38.3906 339.953 38.7396 340.672 39.4375C341.396 40.1354 341.799 41.0833 341.883 42.2812L341.898 42.8594C341.898 44.1562 341.536 45.1979 340.812 45.9844C340.089 46.7656 339.117 47.1562 337.898 47.1562C336.68 47.1562 335.706 46.7656 334.977 45.9844C334.253 45.2031 333.891 44.1406 333.891 42.7969V42.6953ZM336.148 42.8594C336.148 43.6615 336.299 44.276 336.602 44.7031C336.904 45.125 337.336 45.3359 337.898 45.3359C338.445 45.3359 338.872 45.1276 339.18 44.7109C339.487 44.2891 339.641 43.6172 339.641 42.6953C339.641 41.9089 339.487 41.2995 339.18 40.8672C338.872 40.4349 338.44 40.2188 337.883 40.2188C337.331 40.2188 336.904 40.4349 336.602 40.8672C336.299 41.2943 336.148 41.9583 336.148 42.8594ZM354.891 42.8516C354.891 44.2057 354.602 45.263 354.023 46.0234C353.445 46.7786 352.638 47.1562 351.602 47.1562C350.685 47.1562 349.953 46.8047 349.406 46.1016L349.305 47H347.273V35H349.531V39.3047C350.052 38.6953 350.737 38.3906 351.586 38.3906C352.617 38.3906 353.424 38.7708 354.008 39.5312C354.596 40.2865 354.891 41.3516 354.891 42.7266V42.8516ZM352.633 42.6875C352.633 41.8333 352.497 41.2109 352.227 40.8203C351.956 40.4245 351.552 40.2266 351.016 40.2266C350.297 40.2266 349.802 40.5208 349.531 41.1094V44.4453C349.807 45.0391 350.307 45.3359 351.031 45.3359C351.76 45.3359 352.24 44.9766 352.469 44.2578C352.578 43.9141 352.633 43.3906 352.633 42.6875ZM360.18 47.1562C358.94 47.1562 357.93 46.776 357.148 46.0156C356.372 45.2552 355.984 44.2422 355.984 42.9766V42.7578C355.984 41.9089 356.148 41.151 356.477 40.4844C356.805 39.8125 357.268 39.2969 357.867 38.9375C358.471 38.5729 359.159 38.3906 359.93 38.3906C361.086 38.3906 361.995 38.7552 362.656 39.4844C363.323 40.2135 363.656 41.2474 363.656 42.5859V43.5078H358.273C358.346 44.0599 358.565 44.5026 358.93 44.8359C359.299 45.1693 359.766 45.3359 360.328 45.3359C361.198 45.3359 361.878 45.0208 362.367 44.3906L363.477 45.6328C363.138 46.112 362.68 46.487 362.102 46.7578C361.523 47.0234 360.883 47.1562 360.18 47.1562ZM359.922 40.2188C359.474 40.2188 359.109 40.3698 358.828 40.6719C358.552 40.974 358.375 41.4062 358.297 41.9688H361.438V41.7891C361.427 41.2891 361.292 40.9036 361.031 40.6328C360.771 40.3568 360.401 40.2188 359.922 40.2188ZM368.602 42.7109C368.602 41.4141 368.909 40.3698 369.523 39.5781C370.143 38.7865 370.977 38.3906 372.023 38.3906C372.951 38.3906 373.672 38.7083 374.188 39.3438L374.281 38.5469H376.328V46.7188C376.328 47.4583 376.159 48.1016 375.82 48.6484C375.487 49.1953 375.016 49.612 374.406 49.8984C373.797 50.1849 373.083 50.3281 372.266 50.3281C371.646 50.3281 371.042 50.2031 370.453 49.9531C369.865 49.7083 369.419 49.3906 369.117 49L370.117 47.625C370.68 48.2552 371.362 48.5703 372.164 48.5703C372.763 48.5703 373.229 48.4089 373.562 48.0859C373.896 47.7682 374.062 47.3151 374.062 46.7266V46.2734C373.542 46.862 372.857 47.1562 372.008 47.1562C370.992 47.1562 370.169 46.7604 369.539 45.9688C368.914 45.1719 368.602 44.1172 368.602 42.8047V42.7109ZM370.859 42.875C370.859 43.6406 371.013 44.2422 371.32 44.6797C371.628 45.112 372.049 45.3281 372.586 45.3281C373.273 45.3281 373.766 45.0703 374.062 44.5547V41C373.76 40.4844 373.273 40.2266 372.602 40.2266C372.06 40.2266 371.633 40.4479 371.32 40.8906C371.013 41.3333 370.859 41.9948 370.859 42.875ZM381.961 47.1562C380.721 47.1562 379.711 46.776 378.93 46.0156C378.154 45.2552 377.766 44.2422 377.766 42.9766V42.7578C377.766 41.9089 377.93 41.151 378.258 40.4844C378.586 39.8125 379.049 39.2969 379.648 38.9375C380.253 38.5729 380.94 38.3906 381.711 38.3906C382.867 38.3906 383.776 38.7552 384.438 39.4844C385.104 40.2135 385.438 41.2474 385.438 42.5859V43.5078H380.055C380.128 44.0599 380.346 44.5026 380.711 44.8359C381.081 45.1693 381.547 45.3359 382.109 45.3359C382.979 45.3359 383.659 45.0208 384.148 44.3906L385.258 45.6328C384.919 46.112 384.461 46.487 383.883 46.7578C383.305 47.0234 382.664 47.1562 381.961 47.1562ZM381.703 40.2188C381.255 40.2188 380.891 40.3698 380.609 40.6719C380.333 40.974 380.156 41.4062 380.078 41.9688H383.219V41.7891C383.208 41.2891 383.073 40.9036 382.812 40.6328C382.552 40.3568 382.182 40.2188 381.703 40.2188ZM388.805 38.5469L388.875 39.5234C389.479 38.7682 390.289 38.3906 391.305 38.3906C392.201 38.3906 392.867 38.6536 393.305 39.1797C393.742 39.7057 393.966 40.4922 393.977 41.5391V47H391.719V41.5938C391.719 41.1146 391.615 40.7682 391.406 40.5547C391.198 40.3359 390.852 40.2266 390.367 40.2266C389.732 40.2266 389.255 40.4974 388.938 41.0391V47H386.68V38.5469H388.805ZM399.586 47.1562C398.346 47.1562 397.336 46.776 396.555 46.0156C395.779 45.2552 395.391 44.2422 395.391 42.9766V42.7578C395.391 41.9089 395.555 41.151 395.883 40.4844C396.211 39.8125 396.674 39.2969 397.273 38.9375C397.878 38.5729 398.565 38.3906 399.336 38.3906C400.492 38.3906 401.401 38.7552 402.062 39.4844C402.729 40.2135 403.062 41.2474 403.062 42.5859V43.5078H397.68C397.753 44.0599 397.971 44.5026 398.336 44.8359C398.706 45.1693 399.172 45.3359 399.734 45.3359C400.604 45.3359 401.284 45.0208 401.773 44.3906L402.883 45.6328C402.544 46.112 402.086 46.487 401.508 46.7578C400.93 47.0234 400.289 47.1562 399.586 47.1562ZM399.328 40.2188C398.88 40.2188 398.516 40.3698 398.234 40.6719C397.958 40.974 397.781 41.4062 397.703 41.9688H400.844V41.7891C400.833 41.2891 400.698 40.9036 400.438 40.6328C400.177 40.3568 399.807 40.2188 399.328 40.2188ZM409.102 40.6641C408.794 40.6224 408.523 40.6016 408.289 40.6016C407.435 40.6016 406.875 40.8906 406.609 41.4688V47H404.352V38.5469H406.484L406.547 39.5547C407 38.7786 407.628 38.3906 408.43 38.3906C408.68 38.3906 408.914 38.4245 409.133 38.4922L409.102 40.6641ZM414.859 47C414.755 46.7969 414.68 46.5443 414.633 46.2422C414.086 46.8516 413.375 47.1562 412.5 47.1562C411.672 47.1562 410.984 46.9167 410.438 46.4375C409.896 45.9583 409.625 45.3542 409.625 44.625C409.625 43.7292 409.956 43.0417 410.617 42.5625C411.284 42.0833 412.245 41.8411 413.5 41.8359H414.539V41.3516C414.539 40.9609 414.438 40.6484 414.234 40.4141C414.036 40.1797 413.721 40.0625 413.289 40.0625C412.909 40.0625 412.609 40.1536 412.391 40.3359C412.177 40.5182 412.07 40.7682 412.07 41.0859H409.812C409.812 40.5964 409.964 40.1432 410.266 39.7266C410.568 39.3099 410.995 38.9844 411.547 38.75C412.099 38.5104 412.719 38.3906 413.406 38.3906C414.448 38.3906 415.273 38.6536 415.883 39.1797C416.497 39.7005 416.805 40.4349 416.805 41.3828V45.0469C416.81 45.849 416.922 46.4557 417.141 46.8672V47H414.859ZM412.992 45.4297C413.326 45.4297 413.633 45.3568 413.914 45.2109C414.195 45.0599 414.404 44.8594 414.539 44.6094V43.1562H413.695C412.565 43.1562 411.964 43.5469 411.891 44.3281L411.883 44.4609C411.883 44.7422 411.982 44.974 412.18 45.1562C412.378 45.3385 412.648 45.4297 412.992 45.4297ZM421.242 36.4688V38.5469H422.688V40.2031H421.242V44.4219C421.242 44.7344 421.302 44.9583 421.422 45.0938C421.542 45.2292 421.771 45.2969 422.109 45.2969C422.359 45.2969 422.581 45.2786 422.773 45.2422V46.9531C422.331 47.0885 421.875 47.1562 421.406 47.1562C419.823 47.1562 419.016 46.3568 418.984 44.7578V40.2031H417.75V38.5469H418.984V36.4688H421.242ZM427.836 47.1562C426.596 47.1562 425.586 46.776 424.805 46.0156C424.029 45.2552 423.641 44.2422 423.641 42.9766V42.7578C423.641 41.9089 423.805 41.151 424.133 40.4844C424.461 39.8125 424.924 39.2969 425.523 38.9375C426.128 38.5729 426.815 38.3906 427.586 38.3906C428.742 38.3906 429.651 38.7552 430.312 39.4844C430.979 40.2135 431.312 41.2474 431.312 42.5859V43.5078H425.93C426.003 44.0599 426.221 44.5026 426.586 44.8359C426.956 45.1693 427.422 45.3359 427.984 45.3359C428.854 45.3359 429.534 45.0208 430.023 44.3906L431.133 45.6328C430.794 46.112 430.336 46.487 429.758 46.7578C429.18 47.0234 428.539 47.1562 427.836 47.1562ZM427.578 40.2188C427.13 40.2188 426.766 40.3698 426.484 40.6719C426.208 40.974 426.031 41.4062 425.953 41.9688H429.094V41.7891C429.083 41.2891 428.948 40.9036 428.688 40.6328C428.427 40.3568 428.057 40.2188 427.578 40.2188ZM432.25 42.7109C432.25 41.3932 432.544 40.3438 433.133 39.5625C433.727 38.7812 434.536 38.3906 435.562 38.3906C436.385 38.3906 437.065 38.6979 437.602 39.3125V35H439.867V47H437.828L437.719 46.1016C437.156 46.8047 436.432 47.1562 435.547 47.1562C434.552 47.1562 433.753 46.7656 433.148 45.9844C432.549 45.1979 432.25 44.1068 432.25 42.7109ZM434.508 42.875C434.508 43.6667 434.646 44.2734 434.922 44.6953C435.198 45.1172 435.599 45.3281 436.125 45.3281C436.823 45.3281 437.315 45.0339 437.602 44.4453V41.1094C437.32 40.5208 436.833 40.2266 436.141 40.2266C435.052 40.2266 434.508 41.1094 434.508 42.875ZM441.734 45.8906C441.734 45.5312 441.854 45.2396 442.094 45.0156C442.339 44.7917 442.643 44.6797 443.008 44.6797C443.378 44.6797 443.682 44.7917 443.922 45.0156C444.167 45.2396 444.289 45.5312 444.289 45.8906C444.289 46.2448 444.169 46.5339 443.93 46.7578C443.69 46.9766 443.383 47.0859 443.008 47.0859C442.638 47.0859 442.333 46.9766 442.094 46.7578C441.854 46.5339 441.734 46.2448 441.734 45.8906ZM10.7891 60.5703C10.7891 61.6901 10.5911 62.6719 10.1953 63.5156C9.79948 64.3594 9.23177 65.0104 8.49219 65.4688C7.75781 65.9271 6.91406 66.1562 5.96094 66.1562C5.01823 66.1562 4.17708 65.9297 3.4375 65.4766C2.69792 65.0234 2.125 64.3776 1.71875 63.5391C1.3125 62.6953 1.10677 61.7266 1.10156 60.6328V60.0703C1.10156 58.9505 1.30208 57.9661 1.70312 57.1172C2.10938 56.263 2.67969 55.6094 3.41406 55.1562C4.15365 54.6979 4.9974 54.4688 5.94531 54.4688C6.89323 54.4688 7.73438 54.6979 8.46875 55.1562C9.20833 55.6094 9.77865 56.263 10.1797 57.1172C10.5859 57.9661 10.7891 58.9479 10.7891 60.0625V60.5703ZM8.41406 60.0547C8.41406 58.862 8.20052 57.9557 7.77344 57.3359C7.34635 56.7161 6.73698 56.4062 5.94531 56.4062C5.15885 56.4062 4.55208 56.7135 4.125 57.3281C3.69792 57.9375 3.48177 58.8333 3.47656 60.0156V60.5703C3.47656 61.7318 3.6901 62.6328 4.11719 63.2734C4.54427 63.9141 5.15885 64.2344 5.96094 64.2344C6.7474 64.2344 7.35156 63.9271 7.77344 63.3125C8.19531 62.6927 8.40885 61.7917 8.41406 60.6094V60.0547ZM14.4219 57.5469L14.4922 58.5234C15.0964 57.7682 15.9062 57.3906 16.9219 57.3906C17.8177 57.3906 18.4844 57.6536 18.9219 58.1797C19.3594 58.7057 19.5833 59.4922 19.5938 60.5391V66H17.3359V60.5938C17.3359 60.1146 17.2318 59.7682 17.0234 59.5547C16.8151 59.3359 16.4688 59.2266 15.9844 59.2266C15.349 59.2266 14.8724 59.4974 14.5547 60.0391V66H12.2969V57.5469H14.4219ZM24.8281 64.3359C25.2448 64.3359 25.5833 64.2214 25.8438 63.9922C26.1042 63.763 26.2396 63.4583 26.25 63.0781H28.3672C28.362 63.651 28.2057 64.1771 27.8984 64.6562C27.5911 65.1302 27.1693 65.5 26.6328 65.7656C26.1016 66.026 25.513 66.1562 24.8672 66.1562C23.6589 66.1562 22.7057 65.7734 22.0078 65.0078C21.3099 64.237 20.9609 63.1745 20.9609 61.8203V61.6719C20.9609 60.3698 21.3073 59.3307 22 58.5547C22.6927 57.7786 23.6432 57.3906 24.8516 57.3906C25.9089 57.3906 26.7552 57.6927 27.3906 58.2969C28.0312 58.8958 28.3568 59.6953 28.3672 60.6953H26.25C26.2396 60.2578 26.1042 59.9036 25.8438 59.6328C25.5833 59.3568 25.2396 59.2188 24.8125 59.2188C24.2865 59.2188 23.888 59.4115 23.6172 59.7969C23.3516 60.1771 23.2188 60.7969 23.2188 61.6562V61.8906C23.2188 62.7604 23.3516 63.3854 23.6172 63.7656C23.8828 64.1458 24.2865 64.3359 24.8281 64.3359ZM33.5469 66.1562C32.3073 66.1562 31.2969 65.776 30.5156 65.0156C29.7396 64.2552 29.3516 63.2422 29.3516 61.9766V61.7578C29.3516 60.9089 29.5156 60.151 29.8438 59.4844C30.1719 58.8125 30.6354 58.2969 31.2344 57.9375C31.8385 57.5729 32.526 57.3906 33.2969 57.3906C34.4531 57.3906 35.362 57.7552 36.0234 58.4844C36.6901 59.2135 37.0234 60.2474 37.0234 61.5859V62.5078H31.6406C31.7135 63.0599 31.9323 63.5026 32.2969 63.8359C32.6667 64.1693 33.1328 64.3359 33.6953 64.3359C34.5651 64.3359 35.2448 64.0208 35.7344 63.3906L36.8438 64.6328C36.5052 65.112 36.0469 65.487 35.4688 65.7578C34.8906 66.0234 34.25 66.1562 33.5469 66.1562ZM33.2891 59.2188C32.8411 59.2188 32.4766 59.3698 32.1953 59.6719C31.9193 59.974 31.7422 60.4062 31.6641 60.9688H34.8047V60.7891C34.7943 60.2891 34.6589 59.9036 34.3984 59.6328C34.138 59.3568 33.7682 59.2188 33.2891 59.2188ZM45.4531 62.8047L47.0156 57.5469H49.4375L46.0391 67.3125L45.8516 67.7578C45.3464 68.862 44.513 69.4141 43.3516 69.4141C43.0234 69.4141 42.6901 69.3646 42.3516 69.2656V67.5547L42.6953 67.5625C43.1224 67.5625 43.4401 67.4974 43.6484 67.3672C43.862 67.237 44.0286 67.0208 44.1484 66.7188L44.4141 66.0234L41.4531 57.5469H43.8828L45.4531 62.8047ZM49.8516 61.6953C49.8516 60.8568 50.013 60.1094 50.3359 59.4531C50.6589 58.7969 51.1224 58.2891 51.7266 57.9297C52.3359 57.5703 53.0417 57.3906 53.8438 57.3906C54.9844 57.3906 55.9141 57.7396 56.6328 58.4375C57.3568 59.1354 57.7604 60.0833 57.8438 61.2812L57.8594 61.8594C57.8594 63.1562 57.4974 64.1979 56.7734 64.9844C56.0495 65.7656 55.0781 66.1562 53.8594 66.1562C52.6406 66.1562 51.6667 65.7656 50.9375 64.9844C50.2135 64.2031 49.8516 63.1406 49.8516 61.7969V61.6953ZM52.1094 61.8594C52.1094 62.6615 52.2604 63.276 52.5625 63.7031C52.8646 64.125 53.2969 64.3359 53.8594 64.3359C54.4062 64.3359 54.8333 64.1276 55.1406 63.7109C55.4479 63.2891 55.6016 62.6172 55.6016 61.6953C55.6016 60.9089 55.4479 60.2995 55.1406 59.8672C54.8333 59.4349 54.401 59.2188 53.8438 59.2188C53.2917 59.2188 52.8646 59.4349 52.5625 59.8672C52.2604 60.2943 52.1094 60.9583 52.1094 61.8594ZM64.3125 65.1406C63.7552 65.8177 62.9844 66.1562 62 66.1562C61.0938 66.1562 60.401 65.8958 59.9219 65.375C59.4479 64.8542 59.2057 64.0911 59.1953 63.0859V57.5469H61.4531V63.0078C61.4531 63.888 61.8542 64.3281 62.6562 64.3281C63.4219 64.3281 63.9479 64.0625 64.2344 63.5312V57.5469H66.5V66H64.375L64.3125 65.1406ZM76.7656 63.6641C76.7656 63.388 76.6276 63.1719 76.3516 63.0156C76.0807 62.8542 75.6432 62.7109 75.0391 62.5859C73.0286 62.1641 72.0234 61.3099 72.0234 60.0234C72.0234 59.2734 72.3333 58.6484 72.9531 58.1484C73.5781 57.6432 74.3932 57.3906 75.3984 57.3906C76.4714 57.3906 77.3281 57.6432 77.9688 58.1484C78.6146 58.6536 78.9375 59.3099 78.9375 60.1172H76.6797C76.6797 59.7943 76.5755 59.5286 76.3672 59.3203C76.1589 59.1068 75.8333 59 75.3906 59C75.0104 59 74.7161 59.0859 74.5078 59.2578C74.2995 59.4297 74.1953 59.6484 74.1953 59.9141C74.1953 60.1641 74.3125 60.3672 74.5469 60.5234C74.7865 60.6745 75.1875 60.8073 75.75 60.9219C76.3125 61.0312 76.7865 61.1562 77.1719 61.2969C78.3646 61.7344 78.9609 62.4922 78.9609 63.5703C78.9609 64.3411 78.6302 64.9661 77.9688 65.4453C77.3073 65.9193 76.4531 66.1562 75.4062 66.1562C74.6979 66.1562 74.0677 66.0312 73.5156 65.7812C72.9688 65.526 72.5391 65.1797 72.2266 64.7422C71.9141 64.2995 71.7578 63.8229 71.7578 63.3125H73.8984C73.9193 63.7135 74.0677 64.0208 74.3438 64.2344C74.6198 64.4479 74.9896 64.5547 75.4531 64.5547C75.8854 64.5547 76.2109 64.474 76.4297 64.3125C76.6536 64.1458 76.7656 63.9297 76.7656 63.6641ZM83.125 55.4688V57.5469H84.5703V59.2031H83.125V63.4219C83.125 63.7344 83.1849 63.9583 83.3047 64.0938C83.4245 64.2292 83.6536 64.2969 83.9922 64.2969C84.2422 64.2969 84.4635 64.2786 84.6562 64.2422V65.9531C84.2135 66.0885 83.7578 66.1562 83.2891 66.1562C81.7057 66.1562 80.8984 65.3568 80.8672 63.7578V59.2031H79.6328V57.5469H80.8672V55.4688H83.125ZM90.7266 66C90.6224 65.7969 90.5469 65.5443 90.5 65.2422C89.9531 65.8516 89.2422 66.1562 88.3672 66.1562C87.5391 66.1562 86.8516 65.9167 86.3047 65.4375C85.763 64.9583 85.4922 64.3542 85.4922 63.625C85.4922 62.7292 85.8229 62.0417 86.4844 61.5625C87.151 61.0833 88.112 60.8411 89.3672 60.8359H90.4062V60.3516C90.4062 59.9609 90.3047 59.6484 90.1016 59.4141C89.9036 59.1797 89.5885 59.0625 89.1562 59.0625C88.776 59.0625 88.4766 59.1536 88.2578 59.3359C88.0443 59.5182 87.9375 59.7682 87.9375 60.0859H85.6797C85.6797 59.5964 85.8307 59.1432 86.1328 58.7266C86.4349 58.3099 86.862 57.9844 87.4141 57.75C87.9661 57.5104 88.5859 57.3906 89.2734 57.3906C90.3151 57.3906 91.1406 57.6536 91.75 58.1797C92.3646 58.7005 92.6719 59.4349 92.6719 60.3828V64.0469C92.6771 64.849 92.7891 65.4557 93.0078 65.8672V66H90.7266ZM88.8594 64.4297C89.1927 64.4297 89.5 64.3568 89.7812 64.2109C90.0625 64.0599 90.2708 63.8594 90.4062 63.6094V62.1562H89.5625C88.4323 62.1562 87.8307 62.5469 87.7578 63.3281L87.75 63.4609C87.75 63.7422 87.849 63.974 88.0469 64.1562C88.2448 64.3385 88.5156 64.4297 88.8594 64.4297ZM99.1562 59.6641C98.849 59.6224 98.5781 59.6016 98.3438 59.6016C97.4896 59.6016 96.9297 59.8906 96.6641 60.4688V66H94.4062V57.5469H96.5391L96.6016 58.5547C97.0547 57.7786 97.6823 57.3906 98.4844 57.3906C98.7344 57.3906 98.9688 57.4245 99.1875 57.4922L99.1562 59.6641ZM103.344 55.4688V57.5469H104.789V59.2031H103.344V63.4219C103.344 63.7344 103.404 63.9583 103.523 64.0938C103.643 64.2292 103.872 64.2969 104.211 64.2969C104.461 64.2969 104.682 64.2786 104.875 64.2422V65.9531C104.432 66.0885 103.977 66.1562 103.508 66.1562C101.924 66.1562 101.117 65.3568 101.086 63.7578V59.2031H99.8516V57.5469H101.086V55.4688H103.344ZM109.703 61.7109C109.703 60.4141 110.01 59.3698 110.625 58.5781C111.245 57.7865 112.078 57.3906 113.125 57.3906C114.052 57.3906 114.773 57.7083 115.289 58.3438L115.383 57.5469H117.43V65.7188C117.43 66.4583 117.26 67.1016 116.922 67.6484C116.589 68.1953 116.117 68.612 115.508 68.8984C114.898 69.1849 114.185 69.3281 113.367 69.3281C112.747 69.3281 112.143 69.2031 111.555 68.9531C110.966 68.7083 110.521 68.3906 110.219 68L111.219 66.625C111.781 67.2552 112.464 67.5703 113.266 67.5703C113.865 67.5703 114.331 67.4089 114.664 67.0859C114.997 66.7682 115.164 66.3151 115.164 65.7266V65.2734C114.643 65.862 113.958 66.1562 113.109 66.1562C112.094 66.1562 111.271 65.7604 110.641 64.9688C110.016 64.1719 109.703 63.1172 109.703 61.8047V61.7109ZM111.961 61.875C111.961 62.6406 112.115 63.2422 112.422 63.6797C112.729 64.112 113.151 64.3281 113.688 64.3281C114.375 64.3281 114.867 64.0703 115.164 63.5547V60C114.862 59.4844 114.375 59.2266 113.703 59.2266C113.161 59.2266 112.734 59.4479 112.422 59.8906C112.115 60.3333 111.961 60.9948 111.961 61.875ZM123.062 66.1562C121.823 66.1562 120.812 65.776 120.031 65.0156C119.255 64.2552 118.867 63.2422 118.867 61.9766V61.7578C118.867 60.9089 119.031 60.151 119.359 59.4844C119.688 58.8125 120.151 58.2969 120.75 57.9375C121.354 57.5729 122.042 57.3906 122.812 57.3906C123.969 57.3906 124.878 57.7552 125.539 58.4844C126.206 59.2135 126.539 60.2474 126.539 61.5859V62.5078H121.156C121.229 63.0599 121.448 63.5026 121.812 63.8359C122.182 64.1693 122.648 64.3359 123.211 64.3359C124.081 64.3359 124.76 64.0208 125.25 63.3906L126.359 64.6328C126.021 65.112 125.562 65.487 124.984 65.7578C124.406 66.0234 123.766 66.1562 123.062 66.1562ZM122.805 59.2188C122.357 59.2188 121.992 59.3698 121.711 59.6719C121.435 59.974 121.258 60.4062 121.18 60.9688H124.32V60.7891C124.31 60.2891 124.174 59.9036 123.914 59.6328C123.654 59.3568 123.284 59.2188 122.805 59.2188ZM129.906 57.5469L129.977 58.5234C130.581 57.7682 131.391 57.3906 132.406 57.3906C133.302 57.3906 133.969 57.6536 134.406 58.1797C134.844 58.7057 135.068 59.4922 135.078 60.5391V66H132.82V60.5938C132.82 60.1146 132.716 59.7682 132.508 59.5547C132.299 59.3359 131.953 59.2266 131.469 59.2266C130.833 59.2266 130.357 59.4974 130.039 60.0391V66H127.781V57.5469H129.906ZM140.688 66.1562C139.448 66.1562 138.438 65.776 137.656 65.0156C136.88 64.2552 136.492 63.2422 136.492 61.9766V61.7578C136.492 60.9089 136.656 60.151 136.984 59.4844C137.312 58.8125 137.776 58.2969 138.375 57.9375C138.979 57.5729 139.667 57.3906 140.438 57.3906C141.594 57.3906 142.503 57.7552 143.164 58.4844C143.831 59.2135 144.164 60.2474 144.164 61.5859V62.5078H138.781C138.854 63.0599 139.073 63.5026 139.438 63.8359C139.807 64.1693 140.273 64.3359 140.836 64.3359C141.706 64.3359 142.385 64.0208 142.875 63.3906L143.984 64.6328C143.646 65.112 143.188 65.487 142.609 65.7578C142.031 66.0234 141.391 66.1562 140.688 66.1562ZM140.43 59.2188C139.982 59.2188 139.617 59.3698 139.336 59.6719C139.06 59.974 138.883 60.4062 138.805 60.9688H141.945V60.7891C141.935 60.2891 141.799 59.9036 141.539 59.6328C141.279 59.3568 140.909 59.2188 140.43 59.2188ZM150.203 59.6641C149.896 59.6224 149.625 59.6016 149.391 59.6016C148.536 59.6016 147.977 59.8906 147.711 60.4688V66H145.453V57.5469H147.586L147.648 58.5547C148.102 57.7786 148.729 57.3906 149.531 57.3906C149.781 57.3906 150.016 57.4245 150.234 57.4922L150.203 59.6641ZM155.961 66C155.857 65.7969 155.781 65.5443 155.734 65.2422C155.188 65.8516 154.477 66.1562 153.602 66.1562C152.773 66.1562 152.086 65.9167 151.539 65.4375C150.997 64.9583 150.727 64.3542 150.727 63.625C150.727 62.7292 151.057 62.0417 151.719 61.5625C152.385 61.0833 153.346 60.8411 154.602 60.8359H155.641V60.3516C155.641 59.9609 155.539 59.6484 155.336 59.4141C155.138 59.1797 154.823 59.0625 154.391 59.0625C154.01 59.0625 153.711 59.1536 153.492 59.3359C153.279 59.5182 153.172 59.7682 153.172 60.0859H150.914C150.914 59.5964 151.065 59.1432 151.367 58.7266C151.669 58.3099 152.096 57.9844 152.648 57.75C153.201 57.5104 153.82 57.3906 154.508 57.3906C155.549 57.3906 156.375 57.6536 156.984 58.1797C157.599 58.7005 157.906 59.4349 157.906 60.3828V64.0469C157.911 64.849 158.023 65.4557 158.242 65.8672V66H155.961ZM154.094 64.4297C154.427 64.4297 154.734 64.3568 155.016 64.2109C155.297 64.0599 155.505 63.8594 155.641 63.6094V62.1562H154.797C153.667 62.1562 153.065 62.5469 152.992 63.3281L152.984 63.4609C152.984 63.7422 153.083 63.974 153.281 64.1562C153.479 64.3385 153.75 64.4297 154.094 64.4297ZM162.344 55.4688V57.5469H163.789V59.2031H162.344V63.4219C162.344 63.7344 162.404 63.9583 162.523 64.0938C162.643 64.2292 162.872 64.2969 163.211 64.2969C163.461 64.2969 163.682 64.2786 163.875 64.2422V65.9531C163.432 66.0885 162.977 66.1562 162.508 66.1562C160.924 66.1562 160.117 65.3568 160.086 63.7578V59.2031H158.852V57.5469H160.086V55.4688H162.344ZM167.43 66H165.164V57.5469H167.43V66ZM165.031 55.3594C165.031 55.0208 165.143 54.7422 165.367 54.5234C165.596 54.3047 165.906 54.1953 166.297 54.1953C166.682 54.1953 166.99 54.3047 167.219 54.5234C167.448 54.7422 167.562 55.0208 167.562 55.3594C167.562 55.7031 167.445 55.9844 167.211 56.2031C166.982 56.4219 166.677 56.5312 166.297 56.5312C165.917 56.5312 165.609 56.4219 165.375 56.2031C165.146 55.9844 165.031 55.7031 165.031 55.3594ZM171.375 57.5469L171.445 58.5234C172.049 57.7682 172.859 57.3906 173.875 57.3906C174.771 57.3906 175.438 57.6536 175.875 58.1797C176.312 58.7057 176.536 59.4922 176.547 60.5391V66H174.289V60.5938C174.289 60.1146 174.185 59.7682 173.977 59.5547C173.768 59.3359 173.422 59.2266 172.938 59.2266C172.302 59.2266 171.826 59.4974 171.508 60.0391V66H169.25V57.5469H171.375ZM177.938 61.7109C177.938 60.4141 178.245 59.3698 178.859 58.5781C179.479 57.7865 180.312 57.3906 181.359 57.3906C182.286 57.3906 183.008 57.7083 183.523 58.3438L183.617 57.5469H185.664V65.7188C185.664 66.4583 185.495 67.1016 185.156 67.6484C184.823 68.1953 184.352 68.612 183.742 68.8984C183.133 69.1849 182.419 69.3281 181.602 69.3281C180.982 69.3281 180.378 69.2031 179.789 68.9531C179.201 68.7083 178.755 68.3906 178.453 68L179.453 66.625C180.016 67.2552 180.698 67.5703 181.5 67.5703C182.099 67.5703 182.565 67.4089 182.898 67.0859C183.232 66.7682 183.398 66.3151 183.398 65.7266V65.2734C182.878 65.862 182.193 66.1562 181.344 66.1562C180.328 66.1562 179.505 65.7604 178.875 64.9688C178.25 64.1719 177.938 63.1172 177.938 61.8047V61.7109ZM180.195 61.875C180.195 62.6406 180.349 63.2422 180.656 63.6797C180.964 64.112 181.385 64.3281 181.922 64.3281C182.609 64.3281 183.102 64.0703 183.398 63.5547V60C183.096 59.4844 182.609 59.2266 181.938 59.2266C181.396 59.2266 180.969 59.4479 180.656 59.8906C180.349 60.3333 180.195 60.9948 180.195 61.875ZM194.094 55.4688V57.5469H195.539V59.2031H194.094V63.4219C194.094 63.7344 194.154 63.9583 194.273 64.0938C194.393 64.2292 194.622 64.2969 194.961 64.2969C195.211 64.2969 195.432 64.2786 195.625 64.2422V65.9531C195.182 66.0885 194.727 66.1562 194.258 66.1562C192.674 66.1562 191.867 65.3568 191.836 63.7578V59.2031H190.602V57.5469H191.836V55.4688H194.094ZM201.547 59.6641C201.24 59.6224 200.969 59.6016 200.734 59.6016C199.88 59.6016 199.32 59.8906 199.055 60.4688V66H196.797V57.5469H198.93L198.992 58.5547C199.445 57.7786 200.073 57.3906 200.875 57.3906C201.125 57.3906 201.359 57.4245 201.578 57.4922L201.547 59.6641ZM207.305 66C207.201 65.7969 207.125 65.5443 207.078 65.2422C206.531 65.8516 205.82 66.1562 204.945 66.1562C204.117 66.1562 203.43 65.9167 202.883 65.4375C202.341 64.9583 202.07 64.3542 202.07 63.625C202.07 62.7292 202.401 62.0417 203.062 61.5625C203.729 61.0833 204.69 60.8411 205.945 60.8359H206.984V60.3516C206.984 59.9609 206.883 59.6484 206.68 59.4141C206.482 59.1797 206.167 59.0625 205.734 59.0625C205.354 59.0625 205.055 59.1536 204.836 59.3359C204.622 59.5182 204.516 59.7682 204.516 60.0859H202.258C202.258 59.5964 202.409 59.1432 202.711 58.7266C203.013 58.3099 203.44 57.9844 203.992 57.75C204.544 57.5104 205.164 57.3906 205.852 57.3906C206.893 57.3906 207.719 57.6536 208.328 58.1797C208.943 58.7005 209.25 59.4349 209.25 60.3828V64.0469C209.255 64.849 209.367 65.4557 209.586 65.8672V66H207.305ZM205.438 64.4297C205.771 64.4297 206.078 64.3568 206.359 64.2109C206.641 64.0599 206.849 63.8594 206.984 63.6094V62.1562H206.141C205.01 62.1562 204.409 62.5469 204.336 63.3281L204.328 63.4609C204.328 63.7422 204.427 63.974 204.625 64.1562C204.823 64.3385 205.094 64.4297 205.438 64.4297ZM211.602 66V59.2031H210.344V57.5469H211.602V56.8281C211.602 55.8802 211.872 55.1458 212.414 54.625C212.961 54.099 213.724 53.8359 214.703 53.8359C215.016 53.8359 215.398 53.888 215.852 53.9922L215.828 55.7422C215.641 55.6953 215.411 55.6719 215.141 55.6719C214.292 55.6719 213.867 56.0703 213.867 56.8672V57.5469H216.648V57.1562C216.659 56.0938 216.984 55.276 217.625 54.7031C218.271 54.125 219.18 53.8359 220.352 53.8359C221.049 53.8359 221.906 53.9896 222.922 54.2969L222.594 56.1641C222.083 56.013 221.685 55.9167 221.398 55.875C221.117 55.8281 220.815 55.8047 220.492 55.8047C219.44 55.8047 218.914 56.2708 218.914 57.2031V57.5469H220.578V59.2031H218.914V66H216.648V59.2031H213.867V66H211.602ZM223.969 66H221.703V57.5469H223.969V66ZM229.359 64.3359C229.776 64.3359 230.115 64.2214 230.375 63.9922C230.635 63.763 230.771 63.4583 230.781 63.0781H232.898C232.893 63.651 232.737 64.1771 232.43 64.6562C232.122 65.1302 231.701 65.5 231.164 65.7656C230.633 66.026 230.044 66.1562 229.398 66.1562C228.19 66.1562 227.237 65.7734 226.539 65.0078C225.841 64.237 225.492 63.1745 225.492 61.8203V61.6719C225.492 60.3698 225.839 59.3307 226.531 58.5547C227.224 57.7786 228.174 57.3906 229.383 57.3906C230.44 57.3906 231.286 57.6927 231.922 58.2969C232.562 58.8958 232.888 59.6953 232.898 60.6953H230.781C230.771 60.2578 230.635 59.9036 230.375 59.6328C230.115 59.3568 229.771 59.2188 229.344 59.2188C228.818 59.2188 228.419 59.4115 228.148 59.7969C227.883 60.1771 227.75 60.7969 227.75 61.6562V61.8906C227.75 62.7604 227.883 63.3854 228.148 63.7656C228.414 64.1458 228.818 64.3359 229.359 64.3359ZM240.875 55.4688V57.5469H242.32V59.2031H240.875V63.4219C240.875 63.7344 240.935 63.9583 241.055 64.0938C241.174 64.2292 241.404 64.2969 241.742 64.2969C241.992 64.2969 242.214 64.2786 242.406 64.2422V65.9531C241.964 66.0885 241.508 66.1562 241.039 66.1562C239.456 66.1562 238.648 65.3568 238.617 63.7578V59.2031H237.383V57.5469H238.617V55.4688H240.875ZM245.781 58.4688C246.38 57.75 247.133 57.3906 248.039 57.3906C249.872 57.3906 250.802 58.4557 250.828 60.5859V66H248.57V60.6484C248.57 60.1641 248.466 59.8073 248.258 59.5781C248.049 59.3438 247.703 59.2266 247.219 59.2266C246.557 59.2266 246.078 59.4818 245.781 59.9922V66H243.523V54H245.781V58.4688ZM257.281 59.6641C256.974 59.6224 256.703 59.6016 256.469 59.6016C255.615 59.6016 255.055 59.8906 254.789 60.4688V66H252.531V57.5469H254.664L254.727 58.5547C255.18 57.7786 255.807 57.3906 256.609 57.3906C256.859 57.3906 257.094 57.4245 257.312 57.4922L257.281 59.6641ZM257.742 61.6953C257.742 60.8568 257.904 60.1094 258.227 59.4531C258.549 58.7969 259.013 58.2891 259.617 57.9297C260.227 57.5703 260.932 57.3906 261.734 57.3906C262.875 57.3906 263.805 57.7396 264.523 58.4375C265.247 59.1354 265.651 60.0833 265.734 61.2812L265.75 61.8594C265.75 63.1562 265.388 64.1979 264.664 64.9844C263.94 65.7656 262.969 66.1562 261.75 66.1562C260.531 66.1562 259.557 65.7656 258.828 64.9844C258.104 64.2031 257.742 63.1406 257.742 61.7969V61.6953ZM260 61.8594C260 62.6615 260.151 63.276 260.453 63.7031C260.755 64.125 261.188 64.3359 261.75 64.3359C262.297 64.3359 262.724 64.1276 263.031 63.7109C263.339 63.2891 263.492 62.6172 263.492 61.6953C263.492 60.9089 263.339 60.2995 263.031 59.8672C262.724 59.4349 262.292 59.2188 261.734 59.2188C261.182 59.2188 260.755 59.4349 260.453 59.8672C260.151 60.2943 260 60.9583 260 61.8594ZM272.203 65.1406C271.646 65.8177 270.875 66.1562 269.891 66.1562C268.984 66.1562 268.292 65.8958 267.812 65.375C267.339 64.8542 267.096 64.0911 267.086 63.0859V57.5469H269.344V63.0078C269.344 63.888 269.745 64.3281 270.547 64.3281C271.312 64.3281 271.839 64.0625 272.125 63.5312V57.5469H274.391V66H272.266L272.203 65.1406ZM275.766 61.7109C275.766 60.4141 276.073 59.3698 276.688 58.5781C277.307 57.7865 278.141 57.3906 279.188 57.3906C280.115 57.3906 280.836 57.7083 281.352 58.3438L281.445 57.5469H283.492V65.7188C283.492 66.4583 283.323 67.1016 282.984 67.6484C282.651 68.1953 282.18 68.612 281.57 68.8984C280.961 69.1849 280.247 69.3281 279.43 69.3281C278.81 69.3281 278.206 69.2031 277.617 68.9531C277.029 68.7083 276.583 68.3906 276.281 68L277.281 66.625C277.844 67.2552 278.526 67.5703 279.328 67.5703C279.927 67.5703 280.393 67.4089 280.727 67.0859C281.06 66.7682 281.227 66.3151 281.227 65.7266V65.2734C280.706 65.862 280.021 66.1562 279.172 66.1562C278.156 66.1562 277.333 65.7604 276.703 64.9688C276.078 64.1719 275.766 63.1172 275.766 61.8047V61.7109ZM278.023 61.875C278.023 62.6406 278.177 63.2422 278.484 63.6797C278.792 64.112 279.214 64.3281 279.75 64.3281C280.438 64.3281 280.93 64.0703 281.227 63.5547V60C280.924 59.4844 280.438 59.2266 279.766 59.2266C279.224 59.2266 278.797 59.4479 278.484 59.8906C278.177 60.3333 278.023 60.9948 278.023 61.875ZM287.438 58.4688C288.036 57.75 288.789 57.3906 289.695 57.3906C291.529 57.3906 292.458 58.4557 292.484 60.5859V66H290.227V60.6484C290.227 60.1641 290.122 59.8073 289.914 59.5781C289.706 59.3438 289.359 59.2266 288.875 59.2266C288.214 59.2266 287.734 59.4818 287.438 59.9922V66H285.18V54H287.438V58.4688ZM300.875 55.4688V57.5469H302.32V59.2031H300.875V63.4219C300.875 63.7344 300.935 63.9583 301.055 64.0938C301.174 64.2292 301.404 64.2969 301.742 64.2969C301.992 64.2969 302.214 64.2786 302.406 64.2422V65.9531C301.964 66.0885 301.508 66.1562 301.039 66.1562C299.456 66.1562 298.648 65.3568 298.617 63.7578V59.2031H297.383V57.5469H298.617V55.4688H300.875ZM305.781 58.4688C306.38 57.75 307.133 57.3906 308.039 57.3906C309.872 57.3906 310.802 58.4557 310.828 60.5859V66H308.57V60.6484C308.57 60.1641 308.466 59.8073 308.258 59.5781C308.049 59.3438 307.703 59.2266 307.219 59.2266C306.557 59.2266 306.078 59.4818 305.781 59.9922V66H303.523V54H305.781V58.4688ZM316.422 66.1562C315.182 66.1562 314.172 65.776 313.391 65.0156C312.615 64.2552 312.227 63.2422 312.227 61.9766V61.7578C312.227 60.9089 312.391 60.151 312.719 59.4844C313.047 58.8125 313.51 58.2969 314.109 57.9375C314.714 57.5729 315.401 57.3906 316.172 57.3906C317.328 57.3906 318.237 57.7552 318.898 58.4844C319.565 59.2135 319.898 60.2474 319.898 61.5859V62.5078H314.516C314.589 63.0599 314.807 63.5026 315.172 63.8359C315.542 64.1693 316.008 64.3359 316.57 64.3359C317.44 64.3359 318.12 64.0208 318.609 63.3906L319.719 64.6328C319.38 65.112 318.922 65.487 318.344 65.7578C317.766 66.0234 317.125 66.1562 316.422 66.1562ZM316.164 59.2188C315.716 59.2188 315.352 59.3698 315.07 59.6719C314.794 59.974 314.617 60.4062 314.539 60.9688H317.68V60.7891C317.669 60.2891 317.534 59.9036 317.273 59.6328C317.013 59.3568 316.643 59.2188 316.164 59.2188ZM325.32 66V54.625H329.305C330.685 54.625 331.732 54.8906 332.445 55.4219C333.159 55.9479 333.516 56.7214 333.516 57.7422C333.516 58.2995 333.372 58.7917 333.086 59.2188C332.799 59.6406 332.401 59.9505 331.891 60.1484C332.474 60.2943 332.932 60.5885 333.266 61.0312C333.604 61.474 333.773 62.0156 333.773 62.6562C333.773 63.75 333.424 64.5781 332.727 65.1406C332.029 65.7031 331.034 65.9896 329.742 66H325.32ZM327.664 61.0469V64.1172H329.672C330.224 64.1172 330.654 63.987 330.961 63.7266C331.273 63.4609 331.43 63.0964 331.43 62.6328C331.43 61.5911 330.891 61.0625 329.812 61.0469H327.664ZM327.664 59.3906H329.398C330.581 59.3698 331.172 58.8984 331.172 57.9766C331.172 57.4609 331.021 57.0911 330.719 56.8672C330.422 56.638 329.951 56.5234 329.305 56.5234H327.664V59.3906ZM340.289 66C340.185 65.7969 340.109 65.5443 340.062 65.2422C339.516 65.8516 338.805 66.1562 337.93 66.1562C337.102 66.1562 336.414 65.9167 335.867 65.4375C335.326 64.9583 335.055 64.3542 335.055 63.625C335.055 62.7292 335.385 62.0417 336.047 61.5625C336.714 61.0833 337.674 60.8411 338.93 60.8359H339.969V60.3516C339.969 59.9609 339.867 59.6484 339.664 59.4141C339.466 59.1797 339.151 59.0625 338.719 59.0625C338.339 59.0625 338.039 59.1536 337.82 59.3359C337.607 59.5182 337.5 59.7682 337.5 60.0859H335.242C335.242 59.5964 335.393 59.1432 335.695 58.7266C335.997 58.3099 336.424 57.9844 336.977 57.75C337.529 57.5104 338.148 57.3906 338.836 57.3906C339.878 57.3906 340.703 57.6536 341.312 58.1797C341.927 58.7005 342.234 59.4349 342.234 60.3828V64.0469C342.24 64.849 342.352 65.4557 342.57 65.8672V66H340.289ZM338.422 64.4297C338.755 64.4297 339.062 64.3568 339.344 64.2109C339.625 64.0599 339.833 63.8594 339.969 63.6094V62.1562H339.125C337.995 62.1562 337.393 62.5469 337.32 63.3281L337.312 63.4609C337.312 63.7422 337.411 63.974 337.609 64.1562C337.807 64.3385 338.078 64.4297 338.422 64.4297ZM346.352 66H344.086V54H346.352V66ZM353.117 66C353.013 65.7969 352.938 65.5443 352.891 65.2422C352.344 65.8516 351.633 66.1562 350.758 66.1562C349.93 66.1562 349.242 65.9167 348.695 65.4375C348.154 64.9583 347.883 64.3542 347.883 63.625C347.883 62.7292 348.214 62.0417 348.875 61.5625C349.542 61.0833 350.503 60.8411 351.758 60.8359H352.797V60.3516C352.797 59.9609 352.695 59.6484 352.492 59.4141C352.294 59.1797 351.979 59.0625 351.547 59.0625C351.167 59.0625 350.867 59.1536 350.648 59.3359C350.435 59.5182 350.328 59.7682 350.328 60.0859H348.07C348.07 59.5964 348.221 59.1432 348.523 58.7266C348.826 58.3099 349.253 57.9844 349.805 57.75C350.357 57.5104 350.977 57.3906 351.664 57.3906C352.706 57.3906 353.531 57.6536 354.141 58.1797C354.755 58.7005 355.062 59.4349 355.062 60.3828V64.0469C355.068 64.849 355.18 65.4557 355.398 65.8672V66H353.117ZM351.25 64.4297C351.583 64.4297 351.891 64.3568 352.172 64.2109C352.453 64.0599 352.661 63.8594 352.797 63.6094V62.1562H351.953C350.823 62.1562 350.221 62.5469 350.148 63.3281L350.141 63.4609C350.141 63.7422 350.24 63.974 350.438 64.1562C350.635 64.3385 350.906 64.4297 351.25 64.4297ZM358.875 57.5469L358.945 58.5234C359.549 57.7682 360.359 57.3906 361.375 57.3906C362.271 57.3906 362.938 57.6536 363.375 58.1797C363.812 58.7057 364.036 59.4922 364.047 60.5391V66H361.789V60.5938C361.789 60.1146 361.685 59.7682 361.477 59.5547C361.268 59.3359 360.922 59.2266 360.438 59.2266C359.802 59.2266 359.326 59.4974 359.008 60.0391V66H356.75V57.5469H358.875ZM369.281 64.3359C369.698 64.3359 370.036 64.2214 370.297 63.9922C370.557 63.763 370.693 63.4583 370.703 63.0781H372.82C372.815 63.651 372.659 64.1771 372.352 64.6562C372.044 65.1302 371.622 65.5 371.086 65.7656C370.555 66.026 369.966 66.1562 369.32 66.1562C368.112 66.1562 367.159 65.7734 366.461 65.0078C365.763 64.237 365.414 63.1745 365.414 61.8203V61.6719C365.414 60.3698 365.76 59.3307 366.453 58.5547C367.146 57.7786 368.096 57.3906 369.305 57.3906C370.362 57.3906 371.208 57.6927 371.844 58.2969C372.484 58.8958 372.81 59.6953 372.82 60.6953H370.703C370.693 60.2578 370.557 59.9036 370.297 59.6328C370.036 59.3568 369.693 59.2188 369.266 59.2188C368.74 59.2188 368.341 59.4115 368.07 59.7969C367.805 60.1771 367.672 60.7969 367.672 61.6562V61.8906C367.672 62.7604 367.805 63.3854 368.07 63.7656C368.336 64.1458 368.74 64.3359 369.281 64.3359ZM378 66.1562C376.76 66.1562 375.75 65.776 374.969 65.0156C374.193 64.2552 373.805 63.2422 373.805 61.9766V61.7578C373.805 60.9089 373.969 60.151 374.297 59.4844C374.625 58.8125 375.089 58.2969 375.688 57.9375C376.292 57.5729 376.979 57.3906 377.75 57.3906C378.906 57.3906 379.815 57.7552 380.477 58.4844C381.143 59.2135 381.477 60.2474 381.477 61.5859V62.5078H376.094C376.167 63.0599 376.385 63.5026 376.75 63.8359C377.12 64.1693 377.586 64.3359 378.148 64.3359C379.018 64.3359 379.698 64.0208 380.188 63.3906L381.297 64.6328C380.958 65.112 380.5 65.487 379.922 65.7578C379.344 66.0234 378.703 66.1562 378 66.1562ZM377.742 59.2188C377.294 59.2188 376.93 59.3698 376.648 59.6719C376.372 59.974 376.195 60.4062 376.117 60.9688H379.258V60.7891C379.247 60.2891 379.112 59.9036 378.852 59.6328C378.591 59.3568 378.221 59.2188 377.742 59.2188ZM391.648 66C391.544 65.7969 391.469 65.5443 391.422 65.2422C390.875 65.8516 390.164 66.1562 389.289 66.1562C388.461 66.1562 387.773 65.9167 387.227 65.4375C386.685 64.9583 386.414 64.3542 386.414 63.625C386.414 62.7292 386.745 62.0417 387.406 61.5625C388.073 61.0833 389.034 60.8411 390.289 60.8359H391.328V60.3516C391.328 59.9609 391.227 59.6484 391.023 59.4141C390.826 59.1797 390.51 59.0625 390.078 59.0625C389.698 59.0625 389.398 59.1536 389.18 59.3359C388.966 59.5182 388.859 59.7682 388.859 60.0859H386.602C386.602 59.5964 386.753 59.1432 387.055 58.7266C387.357 58.3099 387.784 57.9844 388.336 57.75C388.888 57.5104 389.508 57.3906 390.195 57.3906C391.237 57.3906 392.062 57.6536 392.672 58.1797C393.286 58.7005 393.594 59.4349 393.594 60.3828V64.0469C393.599 64.849 393.711 65.4557 393.93 65.8672V66H391.648ZM389.781 64.4297C390.115 64.4297 390.422 64.3568 390.703 64.2109C390.984 64.0599 391.193 63.8594 391.328 63.6094V62.1562H390.484C389.354 62.1562 388.753 62.5469 388.68 63.3281L388.672 63.4609C388.672 63.7422 388.771 63.974 388.969 64.1562C389.167 64.3385 389.438 64.4297 389.781 64.4297ZM402.938 61.8516C402.938 63.1536 402.641 64.1979 402.047 64.9844C401.458 65.7656 400.661 66.1562 399.656 66.1562C398.802 66.1562 398.112 65.8594 397.586 65.2656V69.25H395.328V57.5469H397.422L397.5 58.375C398.047 57.7188 398.76 57.3906 399.641 57.3906C400.682 57.3906 401.492 57.776 402.07 58.5469C402.648 59.3177 402.938 60.3802 402.938 61.7344V61.8516ZM400.68 61.6875C400.68 60.901 400.539 60.2943 400.258 59.8672C399.982 59.4401 399.578 59.2266 399.047 59.2266C398.339 59.2266 397.852 59.4974 397.586 60.0391V63.5C397.862 64.0573 398.354 64.3359 399.062 64.3359C400.141 64.3359 400.68 63.4531 400.68 61.6875ZM411.953 61.8516C411.953 63.1536 411.656 64.1979 411.062 64.9844C410.474 65.7656 409.677 66.1562 408.672 66.1562C407.818 66.1562 407.128 65.8594 406.602 65.2656V69.25H404.344V57.5469H406.438L406.516 58.375C407.062 57.7188 407.776 57.3906 408.656 57.3906C409.698 57.3906 410.508 57.776 411.086 58.5469C411.664 59.3177 411.953 60.3802 411.953 61.7344V61.8516ZM409.695 61.6875C409.695 60.901 409.555 60.2943 409.273 59.8672C408.997 59.4401 408.594 59.2266 408.062 59.2266C407.354 59.2266 406.867 59.4974 406.602 60.0391V63.5C406.878 64.0573 407.37 64.3359 408.078 64.3359C409.156 64.3359 409.695 63.4531 409.695 61.6875ZM415.742 66H413.477V54H415.742V66ZM419.992 66H417.727V57.5469H419.992V66ZM417.594 55.3594C417.594 55.0208 417.706 54.7422 417.93 54.5234C418.159 54.3047 418.469 54.1953 418.859 54.1953C419.245 54.1953 419.552 54.3047 419.781 54.5234C420.01 54.7422 420.125 55.0208 420.125 55.3594C420.125 55.7031 420.008 55.9844 419.773 56.2031C419.544 56.4219 419.24 56.5312 418.859 56.5312C418.479 56.5312 418.172 56.4219 417.938 56.2031C417.708 55.9844 417.594 55.7031 417.594 55.3594ZM425.375 64.3359C425.792 64.3359 426.13 64.2214 426.391 63.9922C426.651 63.763 426.786 63.4583 426.797 63.0781H428.914C428.909 63.651 428.753 64.1771 428.445 64.6562C428.138 65.1302 427.716 65.5 427.18 65.7656C426.648 66.026 426.06 66.1562 425.414 66.1562C424.206 66.1562 423.253 65.7734 422.555 65.0078C421.857 64.237 421.508 63.1745 421.508 61.8203V61.6719C421.508 60.3698 421.854 59.3307 422.547 58.5547C423.24 57.7786 424.19 57.3906 425.398 57.3906C426.456 57.3906 427.302 57.6927 427.938 58.2969C428.578 58.8958 428.904 59.6953 428.914 60.6953H426.797C426.786 60.2578 426.651 59.9036 426.391 59.6328C426.13 59.3568 425.786 59.2188 425.359 59.2188C424.833 59.2188 424.435 59.4115 424.164 59.7969C423.898 60.1771 423.766 60.7969 423.766 61.6562V61.8906C423.766 62.7604 423.898 63.3854 424.164 63.7656C424.43 64.1458 424.833 64.3359 425.375 64.3359ZM435.102 66C434.997 65.7969 434.922 65.5443 434.875 65.2422C434.328 65.8516 433.617 66.1562 432.742 66.1562C431.914 66.1562 431.227 65.9167 430.68 65.4375C430.138 64.9583 429.867 64.3542 429.867 63.625C429.867 62.7292 430.198 62.0417 430.859 61.5625C431.526 61.0833 432.487 60.8411 433.742 60.8359H434.781V60.3516C434.781 59.9609 434.68 59.6484 434.477 59.4141C434.279 59.1797 433.964 59.0625 433.531 59.0625C433.151 59.0625 432.852 59.1536 432.633 59.3359C432.419 59.5182 432.312 59.7682 432.312 60.0859H430.055C430.055 59.5964 430.206 59.1432 430.508 58.7266C430.81 58.3099 431.237 57.9844 431.789 57.75C432.341 57.5104 432.961 57.3906 433.648 57.3906C434.69 57.3906 435.516 57.6536 436.125 58.1797C436.74 58.7005 437.047 59.4349 437.047 60.3828V64.0469C437.052 64.849 437.164 65.4557 437.383 65.8672V66H435.102ZM433.234 64.4297C433.568 64.4297 433.875 64.3568 434.156 64.2109C434.438 64.0599 434.646 63.8594 434.781 63.6094V62.1562H433.938C432.807 62.1562 432.206 62.5469 432.133 63.3281L432.125 63.4609C432.125 63.7422 432.224 63.974 432.422 64.1562C432.62 64.3385 432.891 64.4297 433.234 64.4297ZM441.484 55.4688V57.5469H442.93V59.2031H441.484V63.4219C441.484 63.7344 441.544 63.9583 441.664 64.0938C441.784 64.2292 442.013 64.2969 442.352 64.2969C442.602 64.2969 442.823 64.2786 443.016 64.2422V65.9531C442.573 66.0885 442.117 66.1562 441.648 66.1562C440.065 66.1562 439.258 65.3568 439.227 63.7578V59.2031H437.992V57.5469H439.227V55.4688H441.484ZM446.57 66H444.305V57.5469H446.57V66ZM444.172 55.3594C444.172 55.0208 444.284 54.7422 444.508 54.5234C444.737 54.3047 445.047 54.1953 445.438 54.1953C445.823 54.1953 446.13 54.3047 446.359 54.5234C446.589 54.7422 446.703 55.0208 446.703 55.3594C446.703 55.7031 446.586 55.9844 446.352 56.2031C446.122 56.4219 445.818 56.5312 445.438 56.5312C445.057 56.5312 444.75 56.4219 444.516 56.2031C444.286 55.9844 444.172 55.7031 444.172 55.3594ZM448.086 61.6953C448.086 60.8568 448.247 60.1094 448.57 59.4531C448.893 58.7969 449.357 58.2891 449.961 57.9297C450.57 57.5703 451.276 57.3906 452.078 57.3906C453.219 57.3906 454.148 57.7396 454.867 58.4375C455.591 59.1354 455.995 60.0833 456.078 61.2812L456.094 61.8594C456.094 63.1562 455.732 64.1979 455.008 64.9844C454.284 65.7656 453.312 66.1562 452.094 66.1562C450.875 66.1562 449.901 65.7656 449.172 64.9844C448.448 64.2031 448.086 63.1406 448.086 61.7969V61.6953ZM450.344 61.8594C450.344 62.6615 450.495 63.276 450.797 63.7031C451.099 64.125 451.531 64.3359 452.094 64.3359C452.641 64.3359 453.068 64.1276 453.375 63.7109C453.682 63.2891 453.836 62.6172 453.836 61.6953C453.836 60.9089 453.682 60.2995 453.375 59.8672C453.068 59.4349 452.635 59.2188 452.078 59.2188C451.526 59.2188 451.099 59.4349 450.797 59.8672C450.495 60.2943 450.344 60.9583 450.344 61.8594ZM459.562 57.5469L459.633 58.5234C460.237 57.7682 461.047 57.3906 462.062 57.3906C462.958 57.3906 463.625 57.6536 464.062 58.1797C464.5 58.7057 464.724 59.4922 464.734 60.5391V66H462.477V60.5938C462.477 60.1146 462.372 59.7682 462.164 59.5547C461.956 59.3359 461.609 59.2266 461.125 59.2266C460.49 59.2266 460.013 59.4974 459.695 60.0391V66H457.438V57.5469H459.562ZM146.047 74.4688V76.5469H147.492V78.2031H146.047V82.4219C146.047 82.7344 146.107 82.9583 146.227 83.0938C146.346 83.2292 146.576 83.2969 146.914 83.2969C147.164 83.2969 147.385 83.2786 147.578 83.2422V84.9531C147.135 85.0885 146.68 85.1562 146.211 85.1562C144.628 85.1562 143.82 84.3568 143.789 82.7578V78.2031H142.555V76.5469H143.789V74.4688H146.047ZM150.953 77.4688C151.552 76.75 152.305 76.3906 153.211 76.3906C155.044 76.3906 155.974 77.4557 156 79.5859V85H153.742V79.6484C153.742 79.1641 153.638 78.8073 153.43 78.5781C153.221 78.3438 152.875 78.2266 152.391 78.2266C151.729 78.2266 151.25 78.4818 150.953 78.9922V85H148.695V73H150.953V77.4688ZM161.594 85.1562C160.354 85.1562 159.344 84.776 158.562 84.0156C157.786 83.2552 157.398 82.2422 157.398 80.9766V80.7578C157.398 79.9089 157.562 79.151 157.891 78.4844C158.219 77.8125 158.682 77.2969 159.281 76.9375C159.885 76.5729 160.573 76.3906 161.344 76.3906C162.5 76.3906 163.409 76.7552 164.07 77.4844C164.737 78.2135 165.07 79.2474 165.07 80.5859V81.5078H159.688C159.76 82.0599 159.979 82.5026 160.344 82.8359C160.714 83.1693 161.18 83.3359 161.742 83.3359C162.612 83.3359 163.292 83.0208 163.781 82.3906L164.891 83.6328C164.552 84.112 164.094 84.487 163.516 84.7578C162.938 85.0234 162.297 85.1562 161.594 85.1562ZM161.336 78.2188C160.888 78.2188 160.523 78.3698 160.242 78.6719C159.966 78.974 159.789 79.4062 159.711 79.9688H162.852V79.7891C162.841 79.2891 162.706 78.9036 162.445 78.6328C162.185 78.3568 161.815 78.2188 161.336 78.2188ZM175.094 78.6641C174.786 78.6224 174.516 78.6016 174.281 78.6016C173.427 78.6016 172.867 78.8906 172.602 79.4688V85H170.344V76.5469H172.477L172.539 77.5547C172.992 76.7786 173.62 76.3906 174.422 76.3906C174.672 76.3906 174.906 76.4245 175.125 76.4922L175.094 78.6641ZM179.922 85.1562C178.682 85.1562 177.672 84.776 176.891 84.0156C176.115 83.2552 175.727 82.2422 175.727 80.9766V80.7578C175.727 79.9089 175.891 79.151 176.219 78.4844C176.547 77.8125 177.01 77.2969 177.609 76.9375C178.214 76.5729 178.901 76.3906 179.672 76.3906C180.828 76.3906 181.737 76.7552 182.398 77.4844C183.065 78.2135 183.398 79.2474 183.398 80.5859V81.5078H178.016C178.089 82.0599 178.307 82.5026 178.672 82.8359C179.042 83.1693 179.508 83.3359 180.07 83.3359C180.94 83.3359 181.62 83.0208 182.109 82.3906L183.219 83.6328C182.88 84.112 182.422 84.487 181.844 84.7578C181.266 85.0234 180.625 85.1562 179.922 85.1562ZM179.664 78.2188C179.216 78.2188 178.852 78.3698 178.57 78.6719C178.294 78.974 178.117 79.4062 178.039 79.9688H181.18V79.7891C181.169 79.2891 181.034 78.9036 180.773 78.6328C180.513 78.3568 180.143 78.2188 179.664 78.2188ZM192.297 80.8516C192.297 82.1536 192 83.1979 191.406 83.9844C190.818 84.7656 190.021 85.1562 189.016 85.1562C188.161 85.1562 187.471 84.8594 186.945 84.2656V88.25H184.688V76.5469H186.781L186.859 77.375C187.406 76.7188 188.12 76.3906 189 76.3906C190.042 76.3906 190.852 76.776 191.43 77.5469C192.008 78.3177 192.297 79.3802 192.297 80.7344V80.8516ZM190.039 80.6875C190.039 79.901 189.898 79.2943 189.617 78.8672C189.341 78.4401 188.938 78.2266 188.406 78.2266C187.698 78.2266 187.211 78.4974 186.945 79.0391V82.5C187.221 83.0573 187.714 83.3359 188.422 83.3359C189.5 83.3359 190.039 82.4531 190.039 80.6875ZM193.352 80.6953C193.352 79.8568 193.513 79.1094 193.836 78.4531C194.159 77.7969 194.622 77.2891 195.227 76.9297C195.836 76.5703 196.542 76.3906 197.344 76.3906C198.484 76.3906 199.414 76.7396 200.133 77.4375C200.857 78.1354 201.26 79.0833 201.344 80.2812L201.359 80.8594C201.359 82.1562 200.997 83.1979 200.273 83.9844C199.549 84.7656 198.578 85.1562 197.359 85.1562C196.141 85.1562 195.167 84.7656 194.438 83.9844C193.714 83.2031 193.352 82.1406 193.352 80.7969V80.6953ZM195.609 80.8594C195.609 81.6615 195.76 82.276 196.062 82.7031C196.365 83.125 196.797 83.3359 197.359 83.3359C197.906 83.3359 198.333 83.1276 198.641 82.7109C198.948 82.2891 199.102 81.6172 199.102 80.6953C199.102 79.9089 198.948 79.2995 198.641 78.8672C198.333 78.4349 197.901 78.2188 197.344 78.2188C196.792 78.2188 196.365 78.4349 196.062 78.8672C195.76 79.2943 195.609 79.9583 195.609 80.8594ZM207.5 78.6641C207.193 78.6224 206.922 78.6016 206.688 78.6016C205.833 78.6016 205.273 78.8906 205.008 79.4688V85H202.75V76.5469H204.883L204.945 77.5547C205.398 76.7786 206.026 76.3906 206.828 76.3906C207.078 76.3906 207.312 76.4245 207.531 76.4922L207.5 78.6641ZM211.688 74.4688V76.5469H213.133V78.2031H211.688V82.4219C211.688 82.7344 211.747 82.9583 211.867 83.0938C211.987 83.2292 212.216 83.2969 212.555 83.2969C212.805 83.2969 213.026 83.2786 213.219 83.2422V84.9531C212.776 85.0885 212.32 85.1562 211.852 85.1562C210.268 85.1562 209.461 84.3568 209.43 82.7578V78.2031H208.195V76.5469H209.43V74.4688H211.688ZM218.969 82.6641C218.969 82.388 218.831 82.1719 218.555 82.0156C218.284 81.8542 217.846 81.7109 217.242 81.5859C215.232 81.1641 214.227 80.3099 214.227 79.0234C214.227 78.2734 214.536 77.6484 215.156 77.1484C215.781 76.6432 216.596 76.3906 217.602 76.3906C218.674 76.3906 219.531 76.6432 220.172 77.1484C220.818 77.6536 221.141 78.3099 221.141 79.1172H218.883C218.883 78.7943 218.779 78.5286 218.57 78.3203C218.362 78.1068 218.036 78 217.594 78C217.214 78 216.919 78.0859 216.711 78.2578C216.503 78.4297 216.398 78.6484 216.398 78.9141C216.398 79.1641 216.516 79.3672 216.75 79.5234C216.99 79.6745 217.391 79.8073 217.953 79.9219C218.516 80.0312 218.99 80.1562 219.375 80.2969C220.568 80.7344 221.164 81.4922 221.164 82.5703C221.164 83.3411 220.833 83.9661 220.172 84.4453C219.51 84.9193 218.656 85.1562 217.609 85.1562C216.901 85.1562 216.271 85.0312 215.719 84.7812C215.172 84.526 214.742 84.1797 214.43 83.7422C214.117 83.2995 213.961 82.8229 213.961 82.3125H216.102C216.122 82.7135 216.271 83.0208 216.547 83.2344C216.823 83.4479 217.193 83.5547 217.656 83.5547C218.089 83.5547 218.414 83.474 218.633 83.3125C218.857 83.1458 218.969 82.9297 218.969 82.6641ZM233.961 81.9297L235.07 76.5469H237.25L235.094 85H233.203L231.602 79.6797L230 85H228.117L225.961 76.5469H228.141L229.242 81.9219L230.789 76.5469H232.422L233.961 81.9297ZM240.758 85H238.492V76.5469H240.758V85ZM238.359 74.3594C238.359 74.0208 238.471 73.7422 238.695 73.5234C238.924 73.3047 239.234 73.1953 239.625 73.1953C240.01 73.1953 240.318 73.3047 240.547 73.5234C240.776 73.7422 240.891 74.0208 240.891 74.3594C240.891 74.7031 240.773 74.9844 240.539 75.2031C240.31 75.4219 240.005 75.5312 239.625 75.5312C239.245 75.5312 238.938 75.4219 238.703 75.2031C238.474 74.9844 238.359 74.7031 238.359 74.3594ZM245.008 85H242.742V73H245.008V85ZM249.258 85H246.992V73H249.258V85ZM262.727 80.8516C262.727 82.2057 262.438 83.263 261.859 84.0234C261.281 84.7786 260.474 85.1562 259.438 85.1562C258.521 85.1562 257.789 84.8047 257.242 84.1016L257.141 85H255.109V73H257.367V77.3047C257.888 76.6953 258.573 76.3906 259.422 76.3906C260.453 76.3906 261.26 76.7708 261.844 77.5312C262.432 78.2865 262.727 79.3516 262.727 80.7266V80.8516ZM260.469 80.6875C260.469 79.8333 260.333 79.2109 260.062 78.8203C259.792 78.4245 259.388 78.2266 258.852 78.2266C258.133 78.2266 257.638 78.5208 257.367 79.1094V82.4453C257.643 83.0391 258.143 83.3359 258.867 83.3359C259.596 83.3359 260.076 82.9766 260.305 82.2578C260.414 81.9141 260.469 81.3906 260.469 80.6875ZM268.016 85.1562C266.776 85.1562 265.766 84.776 264.984 84.0156C264.208 83.2552 263.82 82.2422 263.82 80.9766V80.7578C263.82 79.9089 263.984 79.151 264.312 78.4844C264.641 77.8125 265.104 77.2969 265.703 76.9375C266.307 76.5729 266.995 76.3906 267.766 76.3906C268.922 76.3906 269.831 76.7552 270.492 77.4844C271.159 78.2135 271.492 79.2474 271.492 80.5859V81.5078H266.109C266.182 82.0599 266.401 82.5026 266.766 82.8359C267.135 83.1693 267.602 83.3359 268.164 83.3359C269.034 83.3359 269.714 83.0208 270.203 82.3906L271.312 83.6328C270.974 84.112 270.516 84.487 269.938 84.7578C269.359 85.0234 268.719 85.1562 268.016 85.1562ZM267.758 78.2188C267.31 78.2188 266.945 78.3698 266.664 78.6719C266.388 78.974 266.211 79.4062 266.133 79.9688H269.273V79.7891C269.263 79.2891 269.128 78.9036 268.867 78.6328C268.607 78.3568 268.237 78.2188 267.758 78.2188ZM281.344 82.6641C281.344 82.388 281.206 82.1719 280.93 82.0156C280.659 81.8542 280.221 81.7109 279.617 81.5859C277.607 81.1641 276.602 80.3099 276.602 79.0234C276.602 78.2734 276.911 77.6484 277.531 77.1484C278.156 76.6432 278.971 76.3906 279.977 76.3906C281.049 76.3906 281.906 76.6432 282.547 77.1484C283.193 77.6536 283.516 78.3099 283.516 79.1172H281.258C281.258 78.7943 281.154 78.5286 280.945 78.3203C280.737 78.1068 280.411 78 279.969 78C279.589 78 279.294 78.0859 279.086 78.2578C278.878 78.4297 278.773 78.6484 278.773 78.9141C278.773 79.1641 278.891 79.3672 279.125 79.5234C279.365 79.6745 279.766 79.8073 280.328 79.9219C280.891 80.0312 281.365 80.1562 281.75 80.2969C282.943 80.7344 283.539 81.4922 283.539 82.5703C283.539 83.3411 283.208 83.9661 282.547 84.4453C281.885 84.9193 281.031 85.1562 279.984 85.1562C279.276 85.1562 278.646 85.0312 278.094 84.7812C277.547 84.526 277.117 84.1797 276.805 83.7422C276.492 83.2995 276.336 82.8229 276.336 82.3125H278.477C278.497 82.7135 278.646 83.0208 278.922 83.2344C279.198 83.4479 279.568 83.5547 280.031 83.5547C280.464 83.5547 280.789 83.474 281.008 83.3125C281.232 83.1458 281.344 82.9297 281.344 82.6641ZM287.203 77.4688C287.802 76.75 288.555 76.3906 289.461 76.3906C291.294 76.3906 292.224 77.4557 292.25 79.5859V85H289.992V79.6484C289.992 79.1641 289.888 78.8073 289.68 78.5781C289.471 78.3438 289.125 78.2266 288.641 78.2266C287.979 78.2266 287.5 78.4818 287.203 78.9922V85H284.945V73H287.203V77.4688ZM293.602 80.6953C293.602 79.8568 293.763 79.1094 294.086 78.4531C294.409 77.7969 294.872 77.2891 295.477 76.9297C296.086 76.5703 296.792 76.3906 297.594 76.3906C298.734 76.3906 299.664 76.7396 300.383 77.4375C301.107 78.1354 301.51 79.0833 301.594 80.2812L301.609 80.8594C301.609 82.1562 301.247 83.1979 300.523 83.9844C299.799 84.7656 298.828 85.1562 297.609 85.1562C296.391 85.1562 295.417 84.7656 294.688 83.9844C293.964 83.2031 293.602 82.1406 293.602 80.7969V80.6953ZM295.859 80.8594C295.859 81.6615 296.01 82.276 296.312 82.7031C296.615 83.125 297.047 83.3359 297.609 83.3359C298.156 83.3359 298.583 83.1276 298.891 82.7109C299.198 82.2891 299.352 81.6172 299.352 80.6953C299.352 79.9089 299.198 79.2995 298.891 78.8672C298.583 78.4349 298.151 78.2188 297.594 78.2188C297.042 78.2188 296.615 78.4349 296.312 78.8672C296.01 79.2943 295.859 79.9583 295.859 80.8594ZM310.352 81.9297L311.461 76.5469H313.641L311.484 85H309.594L307.992 79.6797L306.391 85H304.508L302.352 76.5469H304.531L305.633 81.9219L307.18 76.5469H308.812L310.352 81.9297ZM316.844 76.5469L316.914 77.5234C317.518 76.7682 318.328 76.3906 319.344 76.3906C320.24 76.3906 320.906 76.6536 321.344 77.1797C321.781 77.7057 322.005 78.4922 322.016 79.5391V85H319.758V79.5938C319.758 79.1146 319.654 78.7682 319.445 78.5547C319.237 78.3359 318.891 78.2266 318.406 78.2266C317.771 78.2266 317.294 78.4974 316.977 79.0391V85H314.719V76.5469H316.844ZM323.852 83.8906C323.852 83.5312 323.971 83.2396 324.211 83.0156C324.456 82.7917 324.76 82.6797 325.125 82.6797C325.495 82.6797 325.799 82.7917 326.039 83.0156C326.284 83.2396 326.406 83.5312 326.406 83.8906C326.406 84.2448 326.286 84.5339 326.047 84.7578C325.807 84.9766 325.5 85.0859 325.125 85.0859C324.755 85.0859 324.451 84.9766 324.211 84.7578C323.971 84.5339 323.852 84.2448 323.852 83.8906Z" fill="#7E8299"/>
<path d="M193.441 22H189.926L183.082 10.7734V22H179.566V4.9375H183.082L189.938 16.1875V4.9375H193.441V22ZM195.762 15.543C195.762 14.2852 196.004 13.1641 196.488 12.1797C196.973 11.1953 197.668 10.4336 198.574 9.89453C199.488 9.35547 200.547 9.08594 201.75 9.08594C203.461 9.08594 204.855 9.60938 205.934 10.6562C207.02 11.7031 207.625 13.125 207.75 14.9219L207.773 15.7891C207.773 17.7344 207.23 19.2969 206.145 20.4766C205.059 21.6484 203.602 22.2344 201.773 22.2344C199.945 22.2344 198.484 21.6484 197.391 20.4766C196.305 19.3047 195.762 17.7109 195.762 15.6953V15.543ZM199.148 15.7891C199.148 16.9922 199.375 17.9141 199.828 18.5547C200.281 19.1875 200.93 19.5039 201.773 19.5039C202.594 19.5039 203.234 19.1914 203.695 18.5664C204.156 17.9336 204.387 16.9258 204.387 15.543C204.387 14.3633 204.156 13.4492 203.695 12.8008C203.234 12.1523 202.586 11.8281 201.75 11.8281C200.922 11.8281 200.281 12.1523 199.828 12.8008C199.375 13.4414 199.148 14.4375 199.148 15.7891ZM222.961 12.4961C222.5 12.4336 222.094 12.4023 221.742 12.4023C220.461 12.4023 219.621 12.8359 219.223 13.7031V22H215.836V9.32031H219.035L219.129 10.832C219.809 9.66797 220.75 9.08594 221.953 9.08594C222.328 9.08594 222.68 9.13672 223.008 9.23828L222.961 12.4961ZM230.203 22.2344C228.344 22.2344 226.828 21.6641 225.656 20.5234C224.492 19.3828 223.91 17.8633 223.91 15.9648V15.6367C223.91 14.3633 224.156 13.2266 224.648 12.2266C225.141 11.2188 225.836 10.4453 226.734 9.90625C227.641 9.35938 228.672 9.08594 229.828 9.08594C231.562 9.08594 232.926 9.63281 233.918 10.7266C234.918 11.8203 235.418 13.3711 235.418 15.3789V16.7617H227.344C227.453 17.5898 227.781 18.2539 228.328 18.7539C228.883 19.2539 229.582 19.5039 230.426 19.5039C231.73 19.5039 232.75 19.0312 233.484 18.0859L235.148 19.9492C234.641 20.668 233.953 21.2305 233.086 21.6367C232.219 22.0352 231.258 22.2344 230.203 22.2344ZM229.816 11.8281C229.145 11.8281 228.598 12.0547 228.176 12.5078C227.762 12.9609 227.496 13.6094 227.379 14.4531H232.09V14.1836C232.074 13.4336 231.871 12.8555 231.48 12.4492C231.09 12.0352 230.535 11.8281 229.816 11.8281ZM248.766 15.7773C248.766 17.7305 248.32 19.2969 247.43 20.4766C246.547 21.6484 245.352 22.2344 243.844 22.2344C242.562 22.2344 241.527 21.7891 240.738 20.8984V26.875H237.352V9.32031H240.492L240.609 10.5625C241.43 9.57812 242.5 9.08594 243.82 9.08594C245.383 9.08594 246.598 9.66406 247.465 10.8203C248.332 11.9766 248.766 13.5703 248.766 15.6016V15.7773ZM245.379 15.5312C245.379 14.3516 245.168 13.4414 244.746 12.8008C244.332 12.1602 243.727 11.8398 242.93 11.8398C241.867 11.8398 241.137 12.2461 240.738 13.0586V18.25C241.152 19.0859 241.891 19.5039 242.953 19.5039C244.57 19.5039 245.379 18.1797 245.379 15.5312ZM250.348 15.543C250.348 14.2852 250.59 13.1641 251.074 12.1797C251.559 11.1953 252.254 10.4336 253.16 9.89453C254.074 9.35547 255.133 9.08594 256.336 9.08594C258.047 9.08594 259.441 9.60938 260.52 10.6562C261.605 11.7031 262.211 13.125 262.336 14.9219L262.359 15.7891C262.359 17.7344 261.816 19.2969 260.73 20.4766C259.645 21.6484 258.188 22.2344 256.359 22.2344C254.531 22.2344 253.07 21.6484 251.977 20.4766C250.891 19.3047 250.348 17.7109 250.348 15.6953V15.543ZM253.734 15.7891C253.734 16.9922 253.961 17.9141 254.414 18.5547C254.867 19.1875 255.516 19.5039 256.359 19.5039C257.18 19.5039 257.82 19.1914 258.281 18.5664C258.742 17.9336 258.973 16.9258 258.973 15.543C258.973 14.3633 258.742 13.4492 258.281 12.8008C257.82 12.1523 257.172 11.8281 256.336 11.8281C255.508 11.8281 254.867 12.1523 254.414 12.8008C253.961 13.4414 253.734 14.4375 253.734 15.7891ZM271.57 12.4961C271.109 12.4336 270.703 12.4023 270.352 12.4023C269.07 12.4023 268.23 12.8359 267.832 13.7031V22H264.445V9.32031H267.645L267.738 10.832C268.418 9.66797 269.359 9.08594 270.562 9.08594C270.938 9.08594 271.289 9.13672 271.617 9.23828L271.57 12.4961ZM277.852 6.20312V9.32031H280.02V11.8047H277.852V18.1328C277.852 18.6016 277.941 18.9375 278.121 19.1406C278.301 19.3438 278.645 19.4453 279.152 19.4453C279.527 19.4453 279.859 19.418 280.148 19.3633V21.9297C279.484 22.1328 278.801 22.2344 278.098 22.2344C275.723 22.2344 274.512 21.0352 274.465 18.6367V11.8047H272.613V9.32031H274.465V6.20312H277.852ZM288.773 18.4961C288.773 18.082 288.566 17.7578 288.152 17.5234C287.746 17.2812 287.09 17.0664 286.184 16.8789C283.168 16.2461 281.66 14.9648 281.66 13.0352C281.66 11.9102 282.125 10.9727 283.055 10.2227C283.992 9.46484 285.215 9.08594 286.723 9.08594C288.332 9.08594 289.617 9.46484 290.578 10.2227C291.547 10.9805 292.031 11.9648 292.031 13.1758H288.645C288.645 12.6914 288.488 12.293 288.176 11.9805C287.863 11.6602 287.375 11.5 286.711 11.5C286.141 11.5 285.699 11.6289 285.387 11.8867C285.074 12.1445 284.918 12.4727 284.918 12.8711C284.918 13.2461 285.094 13.5508 285.445 13.7852C285.805 14.0117 286.406 14.2109 287.25 14.3828C288.094 14.5469 288.805 14.7344 289.383 14.9453C291.172 15.6016 292.066 16.7383 292.066 18.3555C292.066 19.5117 291.57 20.4492 290.578 21.168C289.586 21.8789 288.305 22.2344 286.734 22.2344C285.672 22.2344 284.727 22.0469 283.898 21.6719C283.078 21.2891 282.434 20.7695 281.965 20.1133C281.496 19.4492 281.262 18.7344 281.262 17.9688H284.473C284.504 18.5703 284.727 19.0312 285.141 19.3516C285.555 19.6719 286.109 19.832 286.805 19.832C287.453 19.832 287.941 19.7109 288.27 19.4688C288.605 19.2188 288.773 18.8945 288.773 18.4961Z" fill="#011F4B"/>
</svg>
