<svg width="23" height="23" viewBox="0 0 23 23" fill="none" xmlns="http://www.w3.org/2000/svg">
<path d="M16.815 0.420032C16.5421 0.282686 16.2262 0.257563 15.935 0.350032C15.7911 0.395931 15.6578 0.469955 15.5428 0.567805C15.4278 0.665655 15.3334 0.785382 15.265 0.920032C15.1243 1.19163 15.0956 1.50752 15.185 1.80003C15.2816 2.08848 15.4858 2.32851 15.755 2.47003C16.8953 3.05545 17.9005 3.87294 18.7061 4.86998C19.5117 5.86701 20.0998 7.02154 20.4326 8.25937C20.7654 9.49721 20.8356 10.791 20.6386 12.0576C20.4417 13.3241 19.982 14.5355 19.289 15.6139C18.596 16.6922 17.6852 17.6136 16.6149 18.319C15.5446 19.0244 14.3386 19.498 13.0744 19.7096C11.8102 19.9211 10.5157 19.8658 9.27409 19.5473C8.0325 19.2288 6.87127 18.654 5.86501 17.86C4.65532 16.9093 3.70369 15.6701 3.09738 14.256C2.49107 12.8419 2.24949 11.2983 2.3948 9.76657C2.54011 8.23487 3.06765 6.76417 3.92905 5.48933C4.79044 4.21449 5.95813 3.17632 7.32501 2.47003C7.45997 2.4022 7.57921 2.30681 7.67501 2.19003C7.77104 2.07421 7.84555 1.94212 7.89501 1.80003C7.92438 1.65147 7.92438 1.49859 7.89501 1.35003C7.88114 1.20066 7.84049 1.055 7.77501 0.920032C7.70718 0.785068 7.61179 0.665834 7.49501 0.570032C7.37698 0.471779 7.24119 0.397094 7.09501 0.350032C6.95331 0.303434 6.80355 0.286416 6.65501 0.300032C6.50185 0.310521 6.35229 0.35131 6.21501 0.420032C3.92721 1.6023 2.10291 3.51886 1.03484 5.86214C-0.0332276 8.20543 -0.283136 10.8396 0.325218 13.3419C0.933573 15.8443 2.36492 18.0697 4.38957 19.6611C6.41422 21.2525 8.91479 22.1176 11.49 22.1176C14.0652 22.1176 16.5658 21.2525 18.5904 19.6611C20.6151 18.0697 22.0464 15.8443 22.6548 13.3419C23.2632 10.8396 23.0132 8.20543 21.9452 5.86214C20.8771 3.51886 19.0528 1.6023 16.765 0.420032H16.815Z" fill="#CDCCCC"/>
</svg>
