<svg width="68" height="13" viewBox="0 0 68 13" fill="none" xmlns="http://www.w3.org/2000/svg">
<path d="M5.60156 0.625H7.94531V8.5C7.94531 9.22396 7.78385 9.86458 7.46094 10.4219C7.14323 10.974 6.69271 11.401 6.10938 11.7031C5.52604 12.0052 4.86719 12.1562 4.13281 12.1562C2.92969 12.1562 1.99219 11.8516 1.32031 11.2422C0.648438 10.6276 0.3125 9.76042 0.3125 8.64062H2.67188C2.67188 9.19792 2.78906 9.60938 3.02344 9.875C3.25781 10.1406 3.6276 10.2734 4.13281 10.2734C4.58073 10.2734 4.9375 10.1198 5.20312 9.8125C5.46875 9.50521 5.60156 9.06771 5.60156 8.5V0.625ZM9.45312 7.69531C9.45312 6.85677 9.61458 6.10938 9.9375 5.45312C10.2604 4.79688 10.724 4.28906 11.3281 3.92969C11.9375 3.57031 12.6432 3.39062 13.4453 3.39062C14.5859 3.39062 15.5156 3.73958 16.2344 4.4375C16.9583 5.13542 17.362 6.08333 17.4453 7.28125L17.4609 7.85938C17.4609 9.15625 17.099 10.1979 16.375 10.9844C15.651 11.7656 14.6797 12.1562 13.4609 12.1562C12.2422 12.1562 11.2682 11.7656 10.5391 10.9844C9.8151 10.2031 9.45312 9.14062 9.45312 7.79688V7.69531ZM11.7109 7.85938C11.7109 8.66146 11.862 9.27604 12.1641 9.70312C12.4661 10.125 12.8984 10.3359 13.4609 10.3359C14.0078 10.3359 14.4349 10.1276 14.7422 9.71094C15.0495 9.28906 15.2031 8.61719 15.2031 7.69531C15.2031 6.90885 15.0495 6.29948 14.7422 5.86719C14.4349 5.4349 14.0026 5.21875 13.4453 5.21875C12.8932 5.21875 12.4661 5.4349 12.1641 5.86719C11.862 6.29427 11.7109 6.95833 11.7109 7.85938ZM21.0547 4.46875C21.6536 3.75 22.4062 3.39062 23.3125 3.39062C25.1458 3.39062 26.0755 4.45573 26.1016 6.58594V12H23.8438V6.64844C23.8438 6.16406 23.7396 5.80729 23.5312 5.57812C23.3229 5.34375 22.9766 5.22656 22.4922 5.22656C21.8307 5.22656 21.3516 5.48177 21.0547 5.99219V12H18.7969V0H21.0547V4.46875ZM29.8828 3.54688L29.9531 4.52344C30.5573 3.76823 31.3672 3.39062 32.3828 3.39062C33.2786 3.39062 33.9453 3.65365 34.3828 4.17969C34.8203 4.70573 35.0443 5.49219 35.0547 6.53906V12H32.7969V6.59375C32.7969 6.11458 32.6927 5.76823 32.4844 5.55469C32.276 5.33594 31.9297 5.22656 31.4453 5.22656C30.8099 5.22656 30.3333 5.4974 30.0156 6.03906V12H27.7578V3.54688H29.8828ZM40.9062 12V0.625H44.4062C45.4062 0.625 46.2995 0.851562 47.0859 1.30469C47.8776 1.7526 48.4948 2.39323 48.9375 3.22656C49.3802 4.05469 49.6016 4.9974 49.6016 6.05469V6.57812C49.6016 7.63542 49.3828 8.57552 48.9453 9.39844C48.513 10.2214 47.901 10.8594 47.1094 11.3125C46.3177 11.7656 45.4245 11.9948 44.4297 12H40.9062ZM43.25 2.52344V10.1172H44.3828C45.2995 10.1172 46 9.81771 46.4844 9.21875C46.9688 8.61979 47.2161 7.76302 47.2266 6.64844V6.04688C47.2266 4.89062 46.987 4.01562 46.5078 3.42188C46.0286 2.82292 45.3281 2.52344 44.4062 2.52344H43.25ZM50.8125 7.69531C50.8125 6.85677 50.974 6.10938 51.2969 5.45312C51.6198 4.79688 52.0833 4.28906 52.6875 3.92969C53.2969 3.57031 54.0026 3.39062 54.8047 3.39062C55.9453 3.39062 56.875 3.73958 57.5938 4.4375C58.3177 5.13542 58.7214 6.08333 58.8047 7.28125L58.8203 7.85938C58.8203 9.15625 58.4583 10.1979 57.7344 10.9844C57.0104 11.7656 56.0391 12.1562 54.8203 12.1562C53.6016 12.1562 52.6276 11.7656 51.8984 10.9844C51.1745 10.2031 50.8125 9.14062 50.8125 7.79688V7.69531ZM53.0703 7.85938C53.0703 8.66146 53.2214 9.27604 53.5234 9.70312C53.8255 10.125 54.2578 10.3359 54.8203 10.3359C55.3672 10.3359 55.7943 10.1276 56.1016 9.71094C56.4089 9.28906 56.5625 8.61719 56.5625 7.69531C56.5625 6.90885 56.4089 6.29948 56.1016 5.86719C55.7943 5.4349 55.362 5.21875 54.8047 5.21875C54.2526 5.21875 53.8255 5.4349 53.5234 5.86719C53.2214 6.29427 53.0703 6.95833 53.0703 7.85938ZM64.1016 12.1562C62.862 12.1562 61.8516 11.776 61.0703 11.0156C60.2943 10.2552 59.9062 9.24219 59.9062 7.97656V7.75781C59.9062 6.90885 60.0703 6.15104 60.3984 5.48438C60.7266 4.8125 61.1901 4.29688 61.7891 3.9375C62.3932 3.57292 63.0807 3.39062 63.8516 3.39062C65.0078 3.39062 65.9167 3.75521 66.5781 4.48438C67.2448 5.21354 67.5781 6.2474 67.5781 7.58594V8.50781H62.1953C62.2682 9.0599 62.487 9.5026 62.8516 9.83594C63.2214 10.1693 63.6875 10.3359 64.25 10.3359C65.1198 10.3359 65.7995 10.0208 66.2891 9.39062L67.3984 10.6328C67.0599 11.112 66.6016 11.487 66.0234 11.7578C65.4453 12.0234 64.8047 12.1562 64.1016 12.1562ZM63.8438 5.21875C63.3958 5.21875 63.0312 5.36979 62.75 5.67188C62.474 5.97396 62.2969 6.40625 62.2188 6.96875H65.3594V6.78906C65.349 6.28906 65.2135 5.90365 64.9531 5.63281C64.6927 5.35677 64.3229 5.21875 63.8438 5.21875Z" fill="#005B96"/>
</svg>
